<svg width="64" height="88" viewBox="0 0 64 88" fill="none" xmlns="http://www.w3.org/2000/svg">
<path d="M27.981 85.3412V70.4346H23.1503V85.3412C22.6831 85.6105 22.2951 85.9981 22.0253 86.4649C21.7555 86.9318 21.6134 87.4615 21.6133 88.0007H29.518C29.5179 87.4615 29.3758 86.9318 29.106 86.4649C28.8362 85.9981 28.4482 85.6105 27.981 85.3412V85.3412Z" fill="#1D3F5A"/>
<path d="M40.9361 85.3412V70.4346H36.1054V85.3412C35.6382 85.6105 35.2502 85.9981 34.9804 86.4649C34.7106 86.9318 34.5685 87.4615 34.5684 88.0007H42.4731C42.473 87.4615 42.3309 86.9318 42.0611 86.4649C41.7912 85.9981 41.4032 85.6105 40.9361 85.3412Z" fill="#1D3F5A"/>
<path d="M31.9376 84.3166C49.5763 84.3166 63.8752 70.0177 63.8752 52.379C63.8752 34.7404 49.5763 20.4414 31.9376 20.4414C14.299 20.4414 0 34.7404 0 52.379C0 70.0177 14.299 84.3166 31.9376 84.3166Z" fill="#1D3F5A"/>
<path d="M31.9358 72.6024C38.9247 72.6024 44.5903 70.7138 44.5903 68.3842C44.5903 66.0546 38.9247 64.166 31.9358 64.166C24.9469 64.166 19.2812 66.0546 19.2812 68.3842C19.2812 70.7138 24.9469 72.6024 31.9358 72.6024Z" fill="white"/>
<path d="M20.4878 50.5723C23.4831 50.5723 25.9112 48.1442 25.9112 45.149C25.9112 42.1537 23.4831 39.7256 20.4878 39.7256C17.4926 39.7256 15.0645 42.1537 15.0645 45.149C15.0645 48.1442 17.4926 50.5723 20.4878 50.5723Z" fill="white"/>
<path d="M43.3863 50.5723C46.3815 50.5723 48.8096 48.1442 48.8096 45.149C48.8096 42.1537 46.3815 39.7256 43.3863 39.7256C40.391 39.7256 37.9629 42.1537 37.9629 45.149C37.9629 48.1442 40.391 50.5723 43.3863 50.5723Z" fill="white"/>
<path d="M20.5951 49.3006C22.9248 49.3006 24.8133 47.4121 24.8133 45.0824C24.8133 42.7528 22.9248 40.8643 20.5951 40.8643C18.2655 40.8643 16.377 42.7528 16.377 45.0824C16.377 47.4121 18.2655 49.3006 20.5951 49.3006Z" fill="#3F3D56"/>
<path d="M43.4428 49.3006C45.7724 49.3006 47.661 47.4121 47.661 45.0824C47.661 42.7528 45.7724 40.8643 43.4428 40.8643C41.1132 40.8643 39.2246 42.7528 39.2246 45.0824C39.2246 47.4121 41.1132 49.3006 43.4428 49.3006Z" fill="#3F3D56"/>
<path d="M31.9366 35.3947C43.5847 35.3947 53.0275 28.1103 53.0275 19.1246C53.0275 10.1389 43.5847 2.85449 31.9366 2.85449C20.2884 2.85449 10.8457 10.1389 10.8457 19.1246C10.8457 28.1103 20.2884 35.3947 31.9366 35.3947Z" fill="#3F3D56"/>
<path d="M31.9376 7.90475C36.5459 7.90475 40.2815 6.13521 40.2815 3.95237C40.2815 1.76954 36.5459 0 31.9376 0C27.3294 0 23.5938 1.76954 23.5938 3.95237C23.5938 6.13521 27.3294 7.90475 31.9376 7.90475Z" fill="#3F3D56"/>
<path d="M32.171 57.0366C33.5594 55.6299 35.6946 55.6019 37.4971 56.0651C39.6458 56.6173 41.4749 57.9478 43.4647 58.8753C44.4738 59.3716 45.5538 59.7085 46.6662 59.8739C48.2236 60.0616 49.8026 59.8097 51.2243 59.1467C52.6461 58.4837 53.8539 57.4361 54.7112 56.1223C55.3395 55.1219 55.7526 54.0017 55.9243 52.8329C56.096 51.6641 56.0225 50.4724 55.7085 49.3336C55.6829 49.2521 55.6267 49.1836 55.5517 49.1427C55.4767 49.1018 55.3887 49.0917 55.3063 49.1144C55.224 49.1371 55.1536 49.1909 55.1101 49.2645C55.0667 49.338 55.0535 49.4256 55.0733 49.5087C55.6273 51.512 55.3632 53.6533 54.339 55.462C53.5613 56.7819 52.4099 57.8418 51.0301 58.5077C49.6504 59.1736 48.1043 59.4156 46.587 59.2032C45.498 59.0116 44.4445 58.6553 43.4627 58.1466C41.5389 57.2047 39.7333 55.9499 37.6331 55.42C35.6099 54.9095 33.253 55.0026 31.7052 56.5708C31.4071 56.8728 31.8726 57.3389 32.171 57.0366V57.0366Z" fill="#3F3D56"/>
<path d="M32.1703 56.5708C30.8025 55.185 28.791 54.9526 26.9509 55.2694C24.8396 55.633 23.0234 56.782 21.1587 57.766C19.2534 58.7714 17.2221 59.5406 15.0344 59.1901C14.0247 59.0378 13.0551 58.687 12.1817 58.1579C11.3083 57.6288 10.5483 56.9319 9.94574 56.1075C9.28064 55.1598 8.83323 54.0768 8.63554 52.9361C8.43784 51.7953 8.49475 50.6249 8.80218 49.5087C8.82202 49.4256 8.80881 49.338 8.76534 49.2645C8.72186 49.1909 8.65153 49.1371 8.56916 49.1144C8.48679 49.0917 8.39881 49.1018 8.32378 49.1427C8.24876 49.1836 8.19254 49.2521 8.16699 49.3336C7.60338 51.3809 7.82443 53.5648 8.78683 55.4576C9.75446 57.3292 11.4032 58.7583 13.3932 59.4503C15.4604 60.1855 17.6422 60.0278 19.6558 59.2053C21.7255 58.3597 23.5588 56.9795 25.6845 56.2699C27.6469 55.6149 30.1332 55.4446 31.7045 57.0366C32.0027 57.3388 32.4685 56.873 32.1703 56.5708V56.5708Z" fill="#3F3D56"/>
<path d="M31.9446 59.1764C33.2786 59.1764 34.36 58.095 34.36 56.761C34.36 55.4271 33.2786 54.3457 31.9446 54.3457C30.6107 54.3457 29.5293 55.4271 29.5293 56.761C29.5293 58.095 30.6107 59.1764 31.9446 59.1764Z" fill="#3F3D56"/>
<path d="M18.7572 44.5242C19.2423 44.5242 19.6355 44.131 19.6355 43.6459C19.6355 43.1608 19.2423 42.7676 18.7572 42.7676C18.2721 42.7676 17.8789 43.1608 17.8789 43.6459C17.8789 44.131 18.2721 44.5242 18.7572 44.5242Z" fill="white"/>
<path d="M45.5463 44.5242C46.0313 44.5242 46.4246 44.131 46.4246 43.6459C46.4246 43.1608 46.0313 42.7676 45.5463 42.7676C45.0612 42.7676 44.668 43.1608 44.668 43.6459C44.668 44.131 45.0612 44.5242 45.5463 44.5242Z" fill="white"/>
</svg>
