<svg width="500" height="298" viewBox="0 0 500 298" fill="none" xmlns="http://www.w3.org/2000/svg">
<g clip-path="url(#clip0_1_65)">
<g opacity="0.1">
<path opacity="0.1" d="M367.616 293.604C372.953 293.604 377.279 287.793 377.279 280.624C377.279 273.456 372.953 267.645 367.616 267.645C362.279 267.645 357.953 273.456 357.953 280.624C357.953 287.793 362.279 293.604 367.616 293.604Z" fill="#3F3D56"/>
<path opacity="0.1" d="M375.263 225.095C376.617 222.683 377.319 219.945 377.297 217.162C377.297 209.978 372.971 204.182 367.634 204.182C362.297 204.182 357.975 209.991 357.975 217.162C357.948 219.943 358.644 222.682 359.992 225.095C358.67 227.518 357.975 230.249 357.975 233.026C357.975 235.804 358.67 238.534 359.992 240.957C358.67 243.381 357.975 246.113 357.975 248.891C357.975 251.669 358.67 254.4 359.992 256.824C358.644 259.238 357.948 261.976 357.975 264.758C357.975 271.941 362.302 277.738 367.634 277.738C372.967 277.738 377.297 271.928 377.297 264.758C377.325 261.976 376.628 259.238 375.281 256.824C376.603 254.4 377.297 251.669 377.297 248.891C377.297 246.113 376.603 243.381 375.281 240.957C376.603 238.534 377.297 235.804 377.297 233.026C377.297 230.249 376.603 227.518 375.281 225.095H375.263Z" fill="#3F3D56"/>
<path opacity="0.1" d="M367.616 214.279C372.953 214.279 377.279 208.468 377.279 201.299C377.279 194.131 372.953 188.319 367.616 188.319C362.279 188.319 357.953 194.131 357.953 201.299C357.953 208.468 362.279 214.279 367.616 214.279Z" fill="#3F3D56"/>
<path opacity="0.1" d="M367.616 198.412C372.953 198.412 377.279 192.601 377.279 185.432C377.279 178.263 372.953 172.452 367.616 172.452C362.279 172.452 357.953 178.263 357.953 185.432C357.953 192.601 362.279 198.412 367.616 198.412Z" fill="#3F3D56"/>
<path opacity="0.1" d="M403.784 76.8603C405.103 75.1347 406.304 73.3181 407.38 71.4232L382.008 67.1444L409.467 67.3554C412.098 61.4733 413.533 55.1021 413.683 48.6313C413.834 42.1606 412.697 35.7264 410.341 29.7221L373.5 49.3245L407.481 23.7058C404.296 18.0653 400.015 13.1579 394.902 9.28902C389.79 5.42019 383.957 2.67277 377.765 1.21778C371.574 -0.237219 365.157 -0.368641 358.914 0.831692C352.671 2.03203 346.736 4.53842 341.477 8.19486C336.219 11.8513 331.75 16.5795 328.349 22.0852C324.948 27.5908 322.687 33.7561 321.708 40.1972C320.728 46.6383 321.051 53.2174 322.656 59.5249C324.261 65.8324 327.114 71.7333 331.037 76.8603C328.981 79.5446 327.212 82.4483 325.761 85.5211L358.714 103.094L323.579 90.9717C321.106 98.4543 320.491 106.452 321.79 114.24C323.089 122.028 326.259 129.36 331.015 135.573C325.646 142.579 322.306 150.995 321.377 159.857C320.448 168.719 321.967 177.671 325.762 185.689C329.556 193.707 335.472 200.468 342.833 205.197C350.195 209.927 358.704 212.435 367.389 212.435C376.073 212.435 384.583 209.927 391.944 205.197C399.305 200.468 405.221 193.707 409.016 185.689C412.81 177.671 414.33 168.719 413.401 159.857C412.472 150.995 409.131 142.579 403.762 135.573C410.178 127.201 413.667 116.859 413.667 106.208C413.667 95.5564 410.178 85.2141 403.762 76.8423L403.784 76.8603Z" fill="#1D3F5A"/>
<path opacity="0.1" d="M321.133 106.228C321.117 116.881 324.607 127.228 331.037 135.591C325.667 142.597 322.327 151.012 321.398 159.875C320.469 168.737 321.989 177.689 325.783 185.707C329.578 193.725 335.494 200.485 342.855 205.215C350.216 209.945 358.726 212.453 367.41 212.453C376.095 212.453 384.604 209.945 391.966 205.215C399.327 200.485 405.243 193.725 409.037 185.707C412.831 177.689 414.351 168.737 413.422 159.875C412.493 151.012 409.153 142.597 403.784 135.591C409.987 127.509 321.133 100.894 321.133 106.228Z" fill="black"/>
</g>
<g opacity="0.1">
<path opacity="0.1" d="M96.5922 279.722C99.8392 279.722 102.471 276.184 102.471 271.82C102.471 267.456 99.8392 263.918 96.5922 263.918C93.3451 263.918 90.7129 267.456 90.7129 271.82C90.7129 276.184 93.3451 279.722 96.5922 279.722Z" fill="#3F3D56"/>
<path opacity="0.1" d="M101.269 238.017C102.089 236.548 102.514 234.88 102.498 233.186C102.498 228.822 99.8732 225.284 96.6142 225.284C93.3552 225.284 90.7349 228.822 90.7349 233.186C90.7178 234.88 91.1406 236.547 91.9598 238.017C91.1568 239.493 90.7352 241.155 90.7352 242.846C90.7352 244.536 91.1568 246.199 91.9598 247.675C91.1568 249.151 90.7352 250.813 90.7352 252.503C90.7352 254.194 91.1568 255.856 91.9598 257.332C91.14 258.8 90.7171 260.467 90.7349 262.159C90.7349 266.527 93.3596 270.065 96.6142 270.065C99.8688 270.065 102.498 266.527 102.498 262.159C102.514 260.466 102.09 258.8 101.269 257.332C102.074 255.857 102.497 254.194 102.497 252.503C102.497 250.812 102.074 249.15 101.269 247.675C102.074 246.2 102.497 244.537 102.497 242.846C102.497 241.155 102.074 239.492 101.269 238.017V238.017Z" fill="#3F3D56"/>
<path opacity="0.1" d="M96.5922 231.43C99.8392 231.43 102.471 227.892 102.471 223.528C102.471 219.164 99.8392 215.626 96.5922 215.626C93.3451 215.626 90.7129 219.164 90.7129 223.528C90.7129 227.892 93.3451 231.43 96.5922 231.43Z" fill="#3F3D56"/>
<path opacity="0.1" d="M96.5922 221.773C99.8392 221.773 102.471 218.235 102.471 213.871C102.471 209.507 99.8392 205.969 96.5922 205.969C93.3451 205.969 90.7129 209.507 90.7129 213.871C90.7129 218.235 93.3451 221.773 96.5922 221.773Z" fill="#3F3D56"/>
<path opacity="0.1" d="M74.5841 147.772C73.7811 146.723 73.0503 145.617 72.3968 144.463L87.8518 141.859L71.137 141.989C69.5368 138.41 68.6638 134.534 68.5713 130.597C68.4788 126.661 69.1687 122.746 70.5989 119.092L93.0093 131.039L72.3312 115.414C74.2707 111.983 76.8774 108.998 79.9891 106.645C83.1009 104.292 86.6512 102.621 90.419 101.736C94.1869 100.852 98.0918 100.773 101.891 101.504C105.69 102.235 109.301 103.761 112.501 105.986C115.701 108.211 118.421 111.088 120.491 114.438C122.56 117.789 123.937 121.54 124.533 125.46C125.13 129.379 124.934 133.383 123.959 137.221C122.983 141.06 121.248 144.651 118.862 147.772C120.114 149.404 121.19 151.17 122.073 153.039L102.012 163.742L123.403 156.375C124.905 160.931 125.277 165.801 124.484 170.542C123.691 175.283 121.759 179.747 118.862 183.529C122.131 187.794 124.163 192.917 124.729 198.312C125.294 203.707 124.369 209.156 122.059 214.037C119.749 218.917 116.148 223.033 111.667 225.912C107.186 228.791 102.006 230.318 96.7188 230.318C91.4321 230.318 86.2521 228.791 81.771 225.912C77.2899 223.033 73.6885 218.917 71.3786 214.037C69.0687 209.156 68.1435 203.707 68.7088 198.312C69.2742 192.917 71.3071 187.794 74.5753 183.529C70.67 178.431 68.5469 172.135 68.5469 165.651C68.5469 159.166 70.67 152.87 74.5753 147.772H74.5841Z" fill="#1D3F5A"/>
<path opacity="0.1" d="M124.89 165.65C124.899 172.136 122.775 178.436 118.862 183.529C122.13 187.794 124.163 192.916 124.728 198.311C125.294 203.706 124.368 209.156 122.059 214.037C119.749 218.917 116.147 223.032 111.666 225.911C107.185 228.791 102.005 230.317 96.7184 230.317C91.4317 230.317 86.2517 228.791 81.7705 225.911C77.2894 223.032 73.6881 218.917 71.3782 214.037C69.0683 209.156 68.1431 203.706 68.7084 198.311C69.2737 192.916 71.3067 187.794 74.5749 183.529C70.7997 178.63 124.89 162.404 124.89 165.65Z" fill="black"/>
</g>
<g opacity="0.1">
<path opacity="0.1" d="M229.137 286.6C233.483 286.6 237.007 281.866 237.007 276.027C237.007 270.187 233.483 265.453 229.137 265.453C224.791 265.453 221.268 270.187 221.268 276.027C221.268 281.866 224.791 286.6 229.137 286.6Z" fill="#3F3D56"/>
<path opacity="0.1" d="M235.366 230.788C236.463 228.821 237.029 226.589 237.007 224.322C237.007 218.486 233.507 213.749 229.133 213.749C224.758 213.749 221.258 218.486 221.258 224.322C221.235 226.59 221.803 228.822 222.903 230.788C221.825 232.762 221.259 234.987 221.259 237.251C221.259 239.514 221.825 241.74 222.903 243.714C221.825 245.687 221.259 247.912 221.259 250.175C221.259 252.437 221.825 254.662 222.903 256.635C221.803 258.601 221.235 260.834 221.258 263.101C221.258 268.937 224.784 273.674 229.133 273.674C233.481 273.674 237.007 268.937 237.007 263.101C237.029 260.834 236.463 258.603 235.366 256.635C236.442 254.661 237.007 252.437 237.007 250.175C237.007 247.912 236.442 245.688 235.366 243.714C236.442 241.739 237.007 239.514 237.007 237.251C237.007 234.988 236.442 232.763 235.366 230.788V230.788Z" fill="#3F3D56"/>
<path opacity="0.1" d="M229.137 221.974C233.483 221.974 237.007 217.24 237.007 211.401C237.007 205.561 233.483 200.827 229.137 200.827C224.791 200.827 221.268 205.561 221.268 211.401C221.268 217.24 224.791 221.974 229.137 221.974Z" fill="#3F3D56"/>
<path opacity="0.1" d="M229.137 209.048C233.483 209.048 237.007 204.314 237.007 198.475C237.007 192.635 233.483 187.901 229.137 187.901C224.791 187.901 221.268 192.635 221.268 198.475C221.268 204.314 224.791 209.048 229.137 209.048Z" fill="#3F3D56"/>
<path opacity="0.1" d="M199.693 110.026C198.618 108.622 197.638 107.143 196.763 105.599L217.441 102.115L195.078 102.286C192.933 97.4941 191.762 92.3036 191.638 87.0317C191.514 81.7598 192.439 76.5173 194.357 71.625L224.365 87.5996L196.688 66.7222C199.274 62.1101 202.759 58.0949 206.925 54.9275C211.091 51.7601 215.848 49.5086 220.9 48.3136C225.952 47.1186 231.19 47.0059 236.287 47.9824C241.383 48.959 246.229 51.0038 250.52 53.9891C254.812 56.9745 258.458 60.8362 261.229 65.333C264.001 69.8297 265.84 74.8649 266.63 80.1239C267.42 85.3829 267.145 90.7526 265.822 95.8976C264.499 101.043 262.157 105.852 258.941 110.026C260.616 112.214 262.056 114.58 263.237 117.084L236.395 131.397L265.017 121.52C267.028 127.617 267.525 134.133 266.464 140.478C265.403 146.822 262.817 152.795 258.941 157.856C263.314 163.563 266.035 170.418 266.791 177.638C267.548 184.858 266.31 192.15 263.219 198.681C260.128 205.213 255.308 210.719 249.312 214.572C243.315 218.425 236.383 220.468 229.308 220.468C222.234 220.468 215.302 218.425 209.305 214.572C203.309 210.719 198.489 205.213 195.398 198.681C192.307 192.15 191.069 184.858 191.826 177.638C192.582 170.418 195.302 163.563 199.676 157.856C194.45 151.034 191.61 142.609 191.61 133.932C191.61 125.255 194.45 116.829 199.676 110.008L199.693 110.026Z" fill="#1D3F5A"/>
<path opacity="0.1" d="M267.007 133.952C267.02 142.63 264.178 151.06 258.941 157.873C263.314 163.581 266.035 170.436 266.791 177.656C267.548 184.875 266.31 192.167 263.219 198.699C260.127 205.23 255.308 210.737 249.312 214.59C243.315 218.443 236.383 220.486 229.308 220.486C222.234 220.486 215.302 218.443 209.305 214.59C203.309 210.737 198.489 205.23 195.398 198.699C192.307 192.167 191.069 184.875 191.826 177.656C192.582 170.436 195.302 163.581 199.676 157.873C194.623 151.291 267.007 129.606 267.007 133.952Z" fill="black"/>
</g>
<path d="M500.001 285.649C500.001 288.733 478.032 291.553 441.711 293.73C435.106 294.121 428.028 294.494 420.521 294.844C414.035 295.143 407.237 295.426 400.127 295.692C393.239 295.944 386.087 296.177 378.671 296.393C355.25 297.08 329.357 297.574 301.851 297.821C295.176 297.883 288.411 297.931 281.558 297.964C274.419 297.997 267.198 298.012 259.896 298.009C127.288 298.009 19.7949 292.482 19.7949 285.662C19.7949 278.842 127.288 273.315 259.896 273.315C316.987 273.315 369.414 274.344 410.622 276.05L415.127 276.238H415.154C467.061 278.497 500.001 281.895 500.001 285.649Z" fill="#3F3D56"/>
<path opacity="0.15" d="M500.001 285.649C500.001 288.733 478.032 291.553 441.711 293.73C435.106 294.121 428.028 294.494 420.521 294.844C414.035 295.143 407.237 295.426 400.127 295.692C393.239 295.944 386.087 296.177 378.671 296.393C355.25 297.08 329.357 297.574 301.851 297.821C295.176 297.883 288.411 297.931 281.558 297.964C274.419 297.997 267.198 298.012 259.896 298.009C127.288 298.009 19.7949 292.482 19.7949 285.662C19.7949 278.842 127.288 273.315 259.896 273.315C316.987 273.315 369.414 274.344 410.622 276.05L415.127 276.238H415.154C467.061 278.497 500.001 281.895 500.001 285.649Z" fill="black"/>
<path d="M480.206 283.476C480.206 286.053 458.237 288.414 421.916 290.21C415.315 290.538 408.233 290.848 400.731 291.14C394.242 291.391 387.444 291.628 380.337 291.849C373.449 292.059 366.296 292.255 358.88 292.437C335.455 293.012 309.563 293.425 282.056 293.632C275.386 293.682 268.622 293.721 261.763 293.748C254.624 293.775 247.404 293.789 240.105 293.789C107.498 293.789 0 289.169 0 283.462C0 277.756 107.498 273.136 240.105 273.136C297.192 273.136 349.619 273.993 390.827 275.421L395.332 275.578H395.363C447.288 277.495 480.206 280.319 480.206 283.476Z" fill="#3F3D56"/>
<path d="M62.0124 189.671L55.9844 170.728L200.341 169.107L206.256 187.861L62.0124 189.671Z" fill="#3F3D56"/>
<path opacity="0.15" d="M62.0124 189.671L55.9844 170.728L200.341 169.107L206.256 187.861L62.0124 189.671Z" fill="black"/>
<path d="M52.3893 189.671L46.3613 170.728L190.718 169.107L196.633 187.861L52.3893 189.671Z" fill="#3F3D56"/>
<path d="M298.824 160.564C283.898 160.564 272.135 154.483 263.535 142.322C254.935 130.16 250.635 115.428 250.635 98.1243C250.635 80.704 254.793 66.0015 263.111 54.0167C271.428 42.032 283.16 36.0457 298.308 36.0576C314.371 36.0576 326.473 42.3718 334.616 55C342.758 67.6283 346.83 82.244 346.833 98.8472C346.833 115.331 342.619 129.74 334.191 142.075C325.763 154.41 313.974 160.573 298.824 160.564ZM299.261 146.883C309.08 146.883 316.419 142.491 321.278 133.706C326.136 124.921 328.566 113.846 328.566 100.481C328.566 85.6053 326.079 73.4246 321.107 63.9391C316.135 54.4537 308.509 49.7096 298.229 49.7066C278.69 49.7066 268.92 65.6363 268.92 97.4958C268.92 130.424 279.031 146.886 299.252 146.883H299.261ZM304.178 277.891H282.59L423.92 38.4956H445.101L304.178 277.891ZM429.209 280.346C414.058 280.346 402.247 274.21 393.776 261.938C385.304 249.666 381.05 234.932 381.015 217.736C381.015 200.433 385.145 185.789 393.404 173.804C401.663 161.819 413.424 155.833 428.688 155.845C444.637 155.845 456.655 162.159 464.742 174.787C472.829 187.416 476.874 202.03 476.877 218.63C476.877 235.006 472.691 249.388 464.318 261.777C455.945 274.166 444.239 280.355 429.2 280.346H429.209ZM429.462 266.316C439.235 266.316 446.534 261.998 451.361 253.363C456.187 244.728 458.601 233.698 458.601 220.273C458.601 205.906 456.158 193.857 451.273 184.126C446.389 174.395 438.779 169.522 428.443 169.507C408.79 169.507 398.964 185.437 398.964 217.296C398.958 249.979 409.121 266.319 429.454 266.316H429.462Z" fill="#3F3D56"/>
<path d="M298.824 160.564C283.898 160.564 272.135 154.483 263.535 142.322C254.935 130.16 250.635 115.428 250.635 98.1243C250.635 80.704 254.793 66.0015 263.111 54.0167C271.428 42.032 283.16 36.0457 298.308 36.0576C314.371 36.0576 326.473 42.3718 334.616 55C342.758 67.6283 346.83 82.244 346.833 98.8472C346.833 115.331 342.619 129.74 334.191 142.075C325.763 154.41 313.974 160.573 298.824 160.564ZM299.261 146.883C309.08 146.883 316.419 142.491 321.278 133.706C326.136 124.921 328.566 113.846 328.566 100.481C328.566 85.6053 326.079 73.4246 321.107 63.9391C316.135 54.4537 308.509 49.7096 298.229 49.7066C278.69 49.7066 268.92 65.6363 268.92 97.4958C268.92 130.424 279.031 146.886 299.252 146.883H299.261ZM304.178 277.891H282.59L423.92 38.4956H445.101L304.178 277.891ZM429.209 280.346C414.058 280.346 402.247 274.21 393.776 261.938C385.304 249.666 381.05 234.932 381.015 217.736C381.015 200.433 385.145 185.789 393.404 173.804C401.663 161.819 413.424 155.833 428.688 155.845C444.637 155.845 456.655 162.159 464.742 174.787C472.829 187.416 476.874 202.03 476.877 218.63C476.877 235.006 472.691 249.388 464.318 261.777C455.945 274.166 444.239 280.355 429.2 280.346H429.209ZM429.462 266.316C439.235 266.316 446.534 261.998 451.361 253.363C456.187 244.728 458.601 233.698 458.601 220.273C458.601 205.906 456.158 193.857 451.273 184.126C446.389 174.395 438.779 169.522 428.443 169.507C408.79 169.507 398.964 185.437 398.964 217.296C398.958 249.979 409.121 266.319 429.454 266.316H429.462Z" fill="#3F3D56"/>
<path opacity="0.15" d="M298.824 160.564C283.898 160.564 272.135 154.483 263.535 142.322C254.935 130.16 250.635 115.428 250.635 98.1243C250.635 80.704 254.793 66.0015 263.111 54.0167C271.428 42.032 283.16 36.0457 298.308 36.0576C314.371 36.0576 326.473 42.3718 334.616 55C342.758 67.6283 346.83 82.244 346.833 98.8472C346.833 115.331 342.619 129.74 334.191 142.075C325.763 154.41 313.974 160.573 298.824 160.564ZM299.261 146.883C309.08 146.883 316.419 142.491 321.278 133.706C326.136 124.921 328.566 113.846 328.566 100.481C328.566 85.6053 326.079 73.4246 321.107 63.9391C316.135 54.4537 308.509 49.7096 298.229 49.7066C278.69 49.7066 268.92 65.6363 268.92 97.4958C268.92 130.424 279.031 146.886 299.252 146.883H299.261ZM304.178 277.891H282.59L423.92 38.4956H445.101L304.178 277.891ZM429.209 280.346C414.058 280.346 402.247 274.21 393.776 261.938C385.304 249.666 381.05 234.932 381.015 217.736C381.015 200.433 385.145 185.789 393.404 173.804C401.663 161.819 413.424 155.833 428.688 155.845C444.637 155.845 456.655 162.159 464.742 174.787C472.829 187.416 476.874 202.03 476.877 218.63C476.877 235.006 472.691 249.388 464.318 261.777C455.945 274.166 444.239 280.355 429.2 280.346H429.209ZM429.462 266.316C439.235 266.316 446.534 261.998 451.361 253.363C456.187 244.728 458.601 233.698 458.601 220.273C458.601 205.906 456.158 193.857 451.273 184.126C446.389 174.395 438.779 169.522 428.443 169.507C408.79 169.507 398.964 185.437 398.964 217.296C398.958 249.979 409.121 266.319 429.454 266.316H429.462Z" fill="black"/>
<path d="M285.263 160.564C270.338 160.564 258.575 154.483 249.974 142.322C241.374 130.16 237.074 115.428 237.074 98.1243C237.074 80.704 241.233 66.0015 249.55 54.0167C257.867 42.032 269.6 36.0457 284.747 36.0576C300.81 36.0576 312.913 42.3718 321.055 55C329.197 67.6283 333.27 82.244 333.273 98.8472C333.273 115.331 329.059 129.74 320.631 142.075C312.203 154.41 300.413 160.573 285.263 160.564ZM285.701 146.883C295.52 146.883 302.859 142.491 307.717 133.706C312.576 124.921 315.005 113.846 315.005 100.481C315.005 85.6053 312.519 73.4246 307.547 63.9391C302.574 54.4537 294.948 49.7096 284.668 49.7066C265.129 49.7066 255.359 65.6363 255.359 97.4958C255.359 130.424 265.47 146.886 285.692 146.883H285.701ZM290.618 277.891H269.03L410.359 38.4956H431.541L290.618 277.891ZM415.648 280.346C400.498 280.346 388.687 274.21 380.215 261.938C371.743 249.666 367.49 234.932 367.455 217.736C367.455 200.433 371.584 185.789 379.843 173.804C388.102 161.819 399.864 155.833 415.128 155.845C431.077 155.845 443.095 162.159 451.182 174.787C459.269 187.416 463.314 202.03 463.317 218.63C463.317 235.006 459.13 249.388 450.758 261.777C442.385 274.166 430.679 280.355 415.639 280.346H415.648ZM415.902 266.316C425.674 266.316 432.974 261.998 437.8 253.363C442.627 244.728 445.04 233.698 445.04 220.273C445.04 205.906 442.598 193.857 437.713 184.126C432.828 174.395 425.215 169.522 414.874 169.507C395.221 169.507 385.394 185.437 385.394 217.296C385.394 249.979 395.561 266.319 415.893 266.316H415.902Z" fill="#3F3D56"/>
<path d="M332.49 283.897C334.292 280.467 332.245 276.265 329.891 273.202C327.538 270.14 324.668 266.962 324.729 263.06C324.817 257.461 330.609 254.152 335.228 251.18C338.664 248.977 341.833 246.364 344.668 243.395C345.856 242.251 346.837 240.901 347.568 239.408C348.526 237.217 348.496 234.725 348.443 232.328C348.242 224.33 347.857 216.344 347.289 208.37" stroke="#3F3D56" stroke-width="4" stroke-miterlimit="10"/>
<path d="M356.088 207.93C356.023 206.467 355.599 205.045 354.857 203.794C354.114 202.543 353.077 201.505 351.841 200.773L349.934 204.644L349.99 199.956C349.081 199.683 348.133 199.567 347.186 199.611C345.505 199.691 343.884 200.282 342.529 201.309C341.175 202.335 340.147 203.75 339.576 205.376C339.006 207.002 338.917 208.764 339.323 210.442C339.728 212.119 340.609 213.635 341.854 214.798C343.098 215.962 344.651 216.72 346.316 216.978C347.981 217.235 349.683 216.98 351.207 216.245C352.73 215.51 354.007 214.328 354.876 212.848C355.745 211.367 356.167 209.656 356.088 207.93V207.93Z" fill="#25CFA0"/>
<path d="M340.909 267.078C340.016 268.86 338.553 270.272 336.766 271.077C334.979 271.883 332.977 272.034 331.094 271.504C329.212 270.974 327.564 269.796 326.428 268.168C325.291 266.539 324.734 264.559 324.851 262.559C324.968 260.56 325.751 258.662 327.07 257.185C328.388 255.707 330.161 254.74 332.091 254.445C334.022 254.15 335.993 254.545 337.673 255.564C339.353 256.584 340.641 258.165 341.321 260.043L336.001 264.483L341.863 263.083C341.861 264.474 341.534 265.844 340.909 267.078V267.078Z" fill="#25CFA0"/>
<path d="M336.705 250.103C335.589 250.157 334.472 249.984 333.421 249.595C332.369 249.206 331.402 248.609 330.575 247.836C329.749 247.063 329.078 246.131 328.603 245.093C328.127 244.054 327.856 242.93 327.803 241.784C327.737 240.415 327.989 239.05 328.538 237.801C329.047 236.634 329.798 235.596 330.74 234.759C331.682 233.922 332.791 233.307 333.989 232.957L333.941 236.549L335.87 232.634C338.125 232.525 340.33 233.341 342 234.901C343.669 236.461 344.666 238.638 344.772 240.953C344.877 243.268 344.083 245.531 342.563 247.245C341.042 248.958 338.921 249.981 336.666 250.09L336.705 250.103Z" fill="#25CFA0"/>
<path d="M357.37 235.992C356.24 236.069 355.107 235.913 354.036 235.535C352.965 235.157 351.978 234.564 351.134 233.79C350.289 233.016 349.603 232.076 349.116 231.027C348.629 229.977 348.351 228.839 348.298 227.678C348.245 226.517 348.419 225.356 348.808 224.265C349.197 223.173 349.794 222.172 350.565 221.321C351.336 220.469 352.264 219.784 353.296 219.304C354.328 218.825 355.442 218.562 356.574 218.531C358.165 218.451 359.746 218.836 361.132 219.64L359.628 223.869L362.725 220.821C364.387 222.376 365.38 224.544 365.485 226.85C365.524 227.659 365.45 228.469 365.266 229.257C364.843 231.108 363.843 232.767 362.418 233.982C360.993 235.198 359.221 235.903 357.37 235.992V235.992Z" fill="#25CFA0"/>
<path opacity="0.1" d="M354.944 210.26C352.98 210.48 351.073 211.109 349.1 211.235C347.127 211.36 344.961 210.875 343.715 209.3C343.041 208.455 342.709 207.382 342.14 206.457C341.603 205.597 340.866 204.885 339.996 204.388C339.45 205.495 339.14 206.709 339.086 207.95C339.033 209.19 339.238 210.427 339.687 211.58C340.136 212.733 340.82 213.774 341.692 214.634C342.563 215.494 343.604 216.154 344.744 216.569C345.884 216.984 347.097 217.145 348.302 217.042C349.507 216.938 350.677 216.572 351.734 215.968C352.79 215.363 353.709 214.535 354.43 213.538C355.15 212.541 355.655 211.397 355.911 210.184C355.587 210.202 355.268 210.224 354.944 210.26Z" fill="black"/>
<path opacity="0.1" d="M357.37 235.992C355.903 236.061 354.444 235.739 353.134 235.058C351.824 234.378 350.707 233.361 349.893 232.107C349.078 230.853 348.593 229.404 348.484 227.901C348.376 226.398 348.647 224.892 349.273 223.528C349.948 223.997 350.528 224.595 350.984 225.288C351.592 226.227 351.959 227.313 352.672 228.175C353.984 229.778 356.264 230.299 358.315 230.205C360.367 230.11 362.353 229.509 364.4 229.307C364.684 229.28 364.973 229.262 365.275 229.253C364.852 231.106 363.851 232.767 362.424 233.984C360.998 235.2 359.223 235.905 357.37 235.992V235.992Z" fill="black"/>
<path opacity="0.1" d="M336.705 250.103C335.589 250.156 334.472 249.984 333.421 249.595C332.369 249.206 331.402 248.608 330.575 247.835C329.749 247.063 329.078 246.131 328.603 245.092C328.127 244.054 327.856 242.929 327.803 241.783C327.737 240.415 327.989 239.05 328.538 237.801C329.24 238.281 329.85 238.89 330.336 239.597C330.997 240.553 331.412 241.657 332.187 242.542C333.621 244.181 336.036 244.76 338.21 244.706C340.384 244.652 342.348 244.131 344.444 243.965C343.924 245.68 342.903 247.189 341.518 248.288C340.134 249.386 338.453 250.02 336.705 250.103V250.103Z" fill="black"/>
<path opacity="0.1" d="M340.91 267.079C339.92 269.077 338.219 270.608 336.159 271.355C334.1 272.102 331.839 272.007 329.846 271.091C327.852 270.176 326.278 268.508 325.448 266.434C324.619 264.36 324.598 262.039 325.39 259.949C326.09 260.423 326.72 260.999 327.258 261.66C328.067 262.675 328.601 263.824 329.537 264.767C331.286 266.518 334.086 267.241 336.588 267.308C338.032 267.32 339.475 267.244 340.91 267.079V267.079Z" fill="black"/>
<path d="M464.16 283.449C465.962 280.019 463.915 275.816 461.561 272.754C459.208 269.692 456.338 266.513 456.399 262.612C456.487 257.013 462.279 253.704 466.898 250.732C470.334 248.529 473.503 245.916 476.338 242.947C477.526 241.803 478.507 240.453 479.238 238.96C480.196 236.769 480.166 234.277 480.113 231.879C479.912 223.882 479.527 215.896 478.958 207.922" stroke="#3F3D56" stroke-width="4" stroke-miterlimit="10"/>
<path d="M487.76 207.482C487.694 206.019 487.271 204.597 486.528 203.346C485.786 202.095 484.749 201.056 483.513 200.325L481.605 204.195L481.662 199.508C480.752 199.235 479.805 199.118 478.858 199.162C477.176 199.243 475.556 199.834 474.201 200.86C472.847 201.887 471.819 203.302 471.248 204.928C470.678 206.553 470.589 208.316 470.995 209.993C471.4 211.671 472.281 213.187 473.525 214.35C474.77 215.513 476.323 216.272 477.988 216.529C479.653 216.787 481.355 216.532 482.878 215.797C484.402 215.062 485.679 213.879 486.548 212.399C487.417 210.919 487.839 209.208 487.76 207.482V207.482Z" fill="#25CFA0"/>
<path d="M472.581 266.63C471.688 268.411 470.225 269.823 468.438 270.629C466.651 271.435 464.649 271.586 462.766 271.056C460.884 270.526 459.236 269.348 458.099 267.72C456.963 266.091 456.406 264.111 456.523 262.111C456.64 260.111 457.423 258.214 458.741 256.736C460.06 255.259 461.833 254.292 463.763 253.997C465.694 253.702 467.665 254.097 469.345 255.116C471.025 256.135 472.313 257.717 472.992 259.595L467.673 264.035L473.535 262.634C473.532 264.025 473.205 265.395 472.581 266.63V266.63Z" fill="#25CFA0"/>
<path d="M468.377 249.654C467.26 249.708 466.144 249.535 465.093 249.146C464.041 248.757 463.074 248.159 462.247 247.387C461.421 246.614 460.75 245.682 460.275 244.644C459.799 243.605 459.527 242.481 459.475 241.334C459.409 239.966 459.661 238.601 460.21 237.352C460.719 236.185 461.47 235.146 462.412 234.309C463.354 233.472 464.463 232.857 465.661 232.508L465.613 236.099L467.542 232.184H467.564C468.68 232.131 469.796 232.303 470.848 232.692C471.9 233.081 472.867 233.679 473.693 234.452C474.52 235.224 475.19 236.156 475.666 237.195C476.142 238.233 476.413 239.358 476.466 240.504C476.518 241.65 476.35 242.796 475.971 243.875C475.592 244.955 475.009 245.947 474.256 246.795C473.504 247.644 472.596 248.332 471.584 248.82C470.572 249.308 469.477 249.587 468.36 249.641L468.377 249.654Z" fill="#25CFA0"/>
<path d="M489.042 235.542C487.912 235.619 486.779 235.464 485.708 235.086C484.637 234.708 483.65 234.115 482.805 233.341C481.961 232.566 481.275 231.627 480.788 230.578C480.301 229.528 480.023 228.39 479.97 227.229C479.917 226.067 480.091 224.907 480.48 223.816C480.869 222.724 481.466 221.723 482.237 220.871C483.008 220.02 483.936 219.334 484.968 218.855C486 218.376 487.114 218.113 488.246 218.082C489.837 218.002 491.418 218.387 492.804 219.191L491.3 223.42L494.397 220.371C496.059 221.926 497.052 224.095 497.157 226.401C497.196 227.21 497.122 228.02 496.938 228.808C496.515 230.659 495.515 232.318 494.09 233.533C492.665 234.749 490.893 235.454 489.042 235.542V235.542Z" fill="#25CFA0"/>
<path opacity="0.1" d="M486.614 209.812C484.65 210.032 482.743 210.661 480.77 210.786C478.797 210.912 476.631 210.427 475.385 208.851C474.711 208.007 474.379 206.934 473.81 206.009C473.273 205.148 472.536 204.437 471.666 203.939C471.12 205.047 470.81 206.261 470.756 207.501C470.703 208.742 470.908 209.979 471.357 211.132C471.806 212.284 472.489 213.325 473.361 214.186C474.233 215.046 475.274 215.706 476.414 216.121C477.554 216.536 478.767 216.697 479.972 216.593C481.177 216.49 482.347 216.124 483.404 215.519C484.46 214.915 485.379 214.087 486.1 213.09C486.82 212.092 487.325 210.949 487.581 209.736C487.257 209.754 486.938 209.776 486.614 209.812Z" fill="black"/>
<path opacity="0.1" d="M489.042 235.543C487.575 235.611 486.116 235.29 484.806 234.609C483.496 233.928 482.379 232.912 481.564 231.658C480.75 230.404 480.265 228.955 480.156 227.452C480.048 225.949 480.319 224.443 480.945 223.079C481.619 223.548 482.2 224.146 482.655 224.839C483.264 225.777 483.631 226.864 484.344 227.726C485.656 229.329 487.935 229.85 489.987 229.755C492.039 229.661 494.025 229.059 496.072 228.857C496.356 228.831 496.645 228.813 496.947 228.804C496.524 230.657 495.523 232.318 494.096 233.535C492.67 234.751 490.895 235.456 489.042 235.543V235.543Z" fill="black"/>
<path opacity="0.1" d="M468.377 249.655C467.26 249.708 466.144 249.536 465.093 249.147C464.041 248.758 463.074 248.16 462.247 247.387C461.421 246.615 460.75 245.683 460.275 244.644C459.799 243.606 459.527 242.481 459.475 241.335C459.409 239.966 459.661 238.601 460.21 237.353C460.912 237.832 461.522 238.441 462.008 239.148C462.669 240.105 463.084 241.209 463.858 242.094C465.293 243.733 467.708 244.312 469.882 244.258C471.991 244.213 474.02 243.683 476.116 243.517C475.596 245.232 474.575 246.741 473.19 247.839C471.806 248.937 470.125 249.571 468.377 249.655V249.655Z" fill="black"/>
<path opacity="0.1" d="M472.58 266.63C471.589 268.628 469.889 270.159 467.829 270.905C465.77 271.652 463.509 271.558 461.515 270.642C459.522 269.726 457.947 268.059 457.118 265.985C456.289 263.911 456.268 261.589 457.06 259.5C457.76 259.973 458.39 260.55 458.927 261.211C459.737 262.225 460.27 263.375 461.207 264.318C462.956 266.069 465.756 266.791 468.258 266.859C469.702 266.871 471.145 266.794 472.58 266.63V266.63Z" fill="black"/>
<path d="M48.0881 277.612C46.2859 274.182 48.3331 269.979 50.6866 266.917C53.04 263.855 55.9097 260.677 55.8484 256.775C55.7609 251.176 49.9692 247.867 45.3497 244.895C41.9141 242.692 38.7453 240.079 35.9097 237.11C34.7222 235.966 33.7404 234.616 33.0094 233.123C32.0514 230.932 32.082 228.44 32.1345 226.042C32.3357 218.045 32.7207 210.059 33.2894 202.085" stroke="#3F3D56" stroke-width="4" stroke-miterlimit="10"/>
<path d="M24.4878 201.645C24.5536 200.182 24.9772 198.76 25.7195 197.509C26.4618 196.258 27.499 195.219 28.7354 194.488L30.6427 198.358L30.5858 193.671C31.4956 193.398 32.443 193.282 33.3898 193.325C35.0716 193.406 36.6922 193.997 38.0467 195.023C39.4013 196.05 40.4289 197.465 40.9997 199.091C41.5705 200.716 41.6588 202.479 41.2535 204.156C40.8482 205.834 39.9674 207.35 38.7225 208.513C37.4777 209.677 35.9247 210.435 34.2599 210.692C32.5951 210.95 30.8932 210.695 29.3696 209.96C27.846 209.225 26.5689 208.042 25.7 206.562C24.831 205.082 24.4092 203.371 24.4878 201.645V201.645Z" fill="#25CFA0"/>
<path d="M39.6685 260.793C40.5617 262.575 42.0244 263.986 43.8115 264.792C45.5985 265.598 47.6011 265.749 49.4835 265.219C51.3659 264.689 53.0136 263.511 54.1503 261.883C55.287 260.254 55.8436 258.274 55.7267 256.274C55.6098 254.274 54.8266 252.377 53.5084 250.899C52.1901 249.422 50.417 248.455 48.4864 248.16C46.5559 247.865 44.5851 248.26 42.9048 249.279C41.2244 250.298 39.9366 251.88 39.2573 253.758L44.5766 258.198L38.7148 256.797C38.7173 258.188 39.0443 259.559 39.6685 260.793V260.793Z" fill="#25CFA0"/>
<path d="M43.8707 243.817C44.9875 243.871 46.1036 243.698 47.1554 243.309C48.2072 242.92 49.174 242.322 50.0007 241.55C50.8273 240.777 51.4976 239.845 51.9732 238.807C52.4489 237.768 52.7205 236.644 52.7727 235.498C52.839 234.129 52.5871 232.764 52.0378 231.515C51.5293 230.348 50.7777 229.309 49.8361 228.472C48.8944 227.635 47.7854 227.02 46.5873 226.671L46.6354 230.263L44.7063 226.347C42.4509 226.239 40.2459 227.055 38.5765 228.615C36.907 230.175 35.9098 232.352 35.8042 234.667C35.6987 236.982 36.4934 239.245 38.0135 240.958C39.5336 242.672 41.6547 243.695 43.9101 243.804L43.8707 243.817Z" fill="#25CFA0"/>
<path d="M23.2067 229.706C24.3367 229.783 25.4703 229.628 26.5412 229.25C27.6121 228.872 28.5988 228.279 29.4436 227.505C30.2883 226.73 30.9742 225.791 31.461 224.742C31.9478 223.692 32.2258 222.554 32.2788 221.393C32.3317 220.232 32.1585 219.071 31.7693 217.98C31.3801 216.888 30.7827 215.887 30.0121 215.036C29.2415 214.184 28.3131 213.498 27.2813 213.019C26.2494 212.54 25.1349 212.277 24.0028 212.246C22.4192 212.17 20.847 212.555 19.4665 213.355L20.9713 217.584L17.8523 214.549C16.1932 216.101 15.2007 218.264 15.0921 220.565C15.0533 221.374 15.127 222.184 15.3108 222.972C15.7341 224.823 16.7341 226.482 18.1589 227.697C19.5838 228.913 21.356 229.618 23.2067 229.706Z" fill="#25CFA0"/>
<path opacity="0.1" d="M25.6347 203.975C27.5989 204.195 29.5061 204.824 31.479 204.949C33.4519 205.075 35.6172 204.59 36.8639 203.014C37.5376 202.17 37.8701 201.097 38.4387 200.172C38.9758 199.311 39.7122 198.6 40.5822 198.103C41.1287 199.21 41.4389 200.424 41.4923 201.664C41.5456 202.905 41.3409 204.142 40.8917 205.295C40.4425 206.447 39.7591 207.489 38.8872 208.349C38.0152 209.209 36.9746 209.869 35.8348 210.284C34.6949 210.699 33.482 210.86 32.2767 210.756C31.0714 210.653 29.9015 210.287 28.8449 209.682C27.7883 209.078 26.8693 208.25 26.1491 207.253C25.4288 206.255 24.9239 205.112 24.668 203.899C24.9917 203.917 25.311 203.939 25.6347 203.975Z" fill="black"/>
<path opacity="0.1" d="M23.2074 229.706C24.6743 229.774 26.1336 229.453 27.4438 228.772C28.754 228.091 29.8705 227.075 30.6852 225.821C31.4998 224.567 31.9849 223.118 32.0934 221.615C32.2019 220.112 31.9302 218.606 31.3045 217.242C30.6301 217.711 30.0495 218.309 29.5941 219.002C28.986 219.941 28.6186 221.027 27.9055 221.889C26.5932 223.492 24.3141 224.013 22.2625 223.918C20.2109 223.824 18.2249 223.223 16.1776 223.021C15.8933 222.994 15.6046 222.976 15.3027 222.967C15.7257 224.82 16.7265 226.481 18.1533 227.698C19.58 228.914 21.3546 229.619 23.2074 229.706V229.706Z" fill="black"/>
<path opacity="0.1" d="M43.8712 243.818C44.988 243.871 46.1041 243.699 47.1559 243.31C48.2077 242.921 49.1745 242.323 50.0012 241.55C50.8278 240.778 51.4981 239.846 51.9737 238.807C52.4494 237.769 52.721 236.644 52.7732 235.498C52.8395 234.13 52.5876 232.764 52.0383 231.516C51.3364 231.996 50.7269 232.604 50.2404 233.312C49.5799 234.268 49.1643 235.372 48.39 236.257C46.9552 237.896 44.5405 238.475 42.3664 238.421C40.2579 238.376 38.2282 237.846 36.1328 237.68C36.6522 239.395 37.6736 240.904 39.0582 242.002C40.4428 243.101 42.1233 243.734 43.8712 243.818V243.818Z" fill="black"/>
<path opacity="0.1" d="M39.668 260.793C40.6585 262.791 42.3595 264.322 44.419 265.069C46.4785 265.815 48.7389 265.721 50.7326 264.805C52.7263 263.89 54.3007 262.222 55.1301 260.148C55.9595 258.074 55.9804 255.752 55.1885 253.663C54.4877 254.136 53.8584 254.713 53.3206 255.374C52.5114 256.388 51.9777 257.538 51.0415 258.481C49.2918 260.232 46.4921 260.955 43.9899 261.022C42.5461 261.034 41.1029 260.957 39.668 260.793V260.793Z" fill="black"/>
<path d="M294.62 235.539C294.628 234.45 294.388 233.375 293.919 232.399C293.449 231.422 292.764 230.573 291.917 229.917C291.812 225.8 288.951 222.437 285.272 221.917C284.988 220.518 284.35 219.22 283.422 218.155C282.495 217.089 281.31 216.293 279.988 215.846V215.846C279.666 215.742 279.337 215.662 279.003 215.608H278.907L278.737 215.586H278.592H278.448H278.26H278.146H277.835C274.082 215.586 270.959 218.531 270.316 222.415C267.888 221.84 265.661 222.585 265.263 224.161C265.161 224.579 265.183 225.019 265.329 225.423C265.74 226.644 267.079 227.812 268.894 228.391L269.13 228.463C269.248 228.499 269.367 228.525 269.485 228.552H269.563C268.896 230.013 268.801 231.681 269.299 233.211C269.796 234.741 270.848 236.017 272.236 236.773C272.181 236.804 272.129 236.838 272.079 236.876C271.854 237.088 271.676 237.345 271.554 237.631C271.115 238.421 270.774 239.264 270.539 240.141C270.364 240.89 270.333 241.676 270.101 242.417C269.703 243.764 268.68 244.945 268.562 246.377C268.509 247.014 268.61 247.764 268.168 248.2C268.058 248.297 267.941 248.385 267.818 248.465C267.508 248.682 267.246 248.963 267.048 249.291C266.919 249.561 266.746 249.807 266.536 250.018C266.138 250.328 265.482 250.296 265.285 250.772C265.088 251.248 265.596 251.81 265.478 252.33C265.381 252.752 264.931 252.945 264.603 253.228C264.236 253.637 263.979 254.137 263.859 254.678C263.206 254.808 262.532 254.788 261.887 254.619C261.242 254.451 260.642 254.138 260.128 253.704C260.304 254.167 260.433 254.647 260.513 255.136C259.992 254.566 259.135 254.4 258.5 254.104C257.682 253.719 256.952 253.162 256.357 252.47L257.503 252.308L252.429 244.406L250.933 244.092L252.276 246.736C252.166 246.79 252.069 246.869 251.993 246.967C251.918 247.065 251.865 247.18 251.838 247.302C251.766 247.595 251.748 247.9 251.786 248.2C251.857 248.909 251.972 249.612 252.131 250.305L252.521 252.164C252.554 252.339 252.596 252.511 252.647 252.681C252.14 252.662 251.633 252.721 251.143 252.856C250.137 252.474 249.089 252.219 248.024 252.097C247.789 252.055 247.548 252.067 247.319 252.133C247.059 252.256 246.834 252.444 246.663 252.681C245.788 253.719 245.012 254.84 244.345 256.03C241.619 260.897 237.98 265.144 234.572 269.544C232.219 270.527 229.848 271.461 227.472 272.386L222.367 274.384C221.348 274.784 220.29 275.192 219.205 275.12C218.715 275.089 218.12 275.013 217.844 275.439C217.71 275.651 217.606 275.88 217.534 276.122C217.354 276.122 217.175 276.167 217.009 276.176H216.978C216.654 275.349 216.374 274.465 215.753 273.863C215.628 273.883 215.51 273.934 215.409 274.013C215.308 274.091 215.228 274.194 215.176 274.312C215.053 274.546 214.979 274.802 214.839 275.017C214.563 275.43 214.087 275.632 213.745 275.982C213.404 276.333 213.19 276.88 212.822 277.222C212.308 277.606 211.705 277.845 211.073 277.918C210.126 278.146 209.212 278.503 208.356 278.977C208.04 279.176 207.703 279.336 207.35 279.453C206.962 279.529 206.565 279.543 206.173 279.494L203.47 279.291C203.229 279.259 202.985 279.27 202.748 279.323C202.469 279.428 202.233 279.624 202.074 279.882C201.916 280.139 201.845 280.443 201.873 280.746C201.906 281.047 201.999 281.338 202.145 281.6C202.292 281.863 202.49 282.092 202.726 282.273C203.195 282.626 203.715 282.903 204.266 283.094C206.615 284.028 209.037 284.757 211.506 285.272V285.833C213.217 286.718 215.106 287.179 217.022 287.18C217.163 287.191 217.305 287.165 217.433 287.104C217.61 286.967 217.733 286.769 217.779 286.547C218.352 284.786 218.715 282.96 218.859 281.11C219.197 281.087 219.528 281.001 219.835 280.854C220.766 280.593 221.689 281.249 222.647 281.357C223.828 281.487 224.926 280.782 226.042 280.347C226.204 280.284 226.366 280.23 226.528 280.176C226.209 280.598 225.834 280.972 225.412 281.285C224.948 281.626 224.428 281.878 223.973 282.232C223.595 282.587 223.19 282.91 222.761 283.198C222.459 283.342 222.148 283.465 221.829 283.566C221.368 283.739 220.927 283.966 220.517 284.244C220.15 284.466 219.838 284.773 219.607 285.142C219.491 285.313 219.419 285.513 219.4 285.721C219.38 285.929 219.412 286.139 219.494 286.331C219.575 286.523 219.703 286.69 219.866 286.817C220.028 286.943 220.219 287.025 220.421 287.054C220.786 287.121 221.159 287.131 221.527 287.086C222.989 286.973 224.445 286.834 225.902 286.7C226.519 286.657 227.131 286.567 227.735 286.43C228.054 286.349 228.369 286.242 228.689 286.156C229.233 286.009 229.792 285.923 230.355 285.9C230.519 285.887 230.683 285.904 230.841 285.95C231.182 286.062 231.423 286.399 231.768 286.489C231.992 286.511 232.219 286.479 232.429 286.394C233.495 286.157 234.583 286.038 235.674 286.04C236.151 286.013 236.711 285.918 236.934 285.465C237.206 284.904 236.751 284.275 236.571 283.669C236.48 283.284 236.43 282.889 236.423 282.493C236.339 281.514 236.066 280.563 235.618 279.696C235.38 279.291 235.179 278.864 235.018 278.42C237.109 277.604 239.109 276.563 240.985 275.314C242.061 274.627 243.172 273.886 244.388 273.634C245.806 273.342 247.267 273.729 248.662 274.142C251.986 275.129 255.256 276.299 258.457 277.648C259.988 278.29 261.519 278.973 263.085 279.444C263.543 280.078 264.096 280.633 264.725 281.087C265.775 281.783 267.057 281.985 268.29 282.084C269.957 282.24 271.63 282.305 273.304 282.277C274.581 282.255 275.898 282.165 277.039 281.568C277.318 281.421 277.581 281.243 277.822 281.038C278.697 281.2 279.594 280.719 280.281 280.104C281.19 279.31 281.845 278.254 282.162 277.074C282.564 275.453 282.254 273.562 283.225 272.238C283.483 271.883 283.82 271.596 284.073 271.237C284.386 270.756 284.539 270.184 284.511 269.607L284.555 269.54C284.774 269.019 284.922 268.469 284.992 267.905C285.107 267.465 285.253 267.035 285.43 266.617C285.923 265.364 286.352 264.086 286.716 262.787C286.969 261.925 287.167 261.048 287.311 260.161C287.416 259.451 287.477 258.737 287.534 258.023C287.604 256.906 287.816 255.803 288.164 254.741C289.027 252.208 289.515 249.557 289.612 246.875C289.612 246.821 289.612 246.772 289.612 246.718C290.882 246.575 292.054 245.951 292.899 244.968C293.745 243.985 294.202 242.713 294.183 241.402C294.184 240.612 294.023 239.83 293.71 239.108C294.314 238.021 294.628 236.79 294.62 235.539V235.539ZM269.883 266.388C269.957 266.662 270.045 266.936 270.132 267.209C269.73 266.801 269.332 266.379 268.925 265.975C269.087 266.024 269.248 266.078 269.406 266.136C269.574 266.205 269.735 266.289 269.887 266.388H269.883ZM267.923 265.041C265.535 262.913 262.77 261.26 260.325 259.204C261.637 259.882 262.949 260.668 264.262 261.422C265.79 262.32 267.335 263.179 268.898 263.999C268.642 264.399 268.316 264.746 267.936 265.023L267.923 265.041ZM268.942 259.68L269.056 259.559C269.056 259.86 269.056 260.143 269.056 260.398C268.842 260.327 268.619 260.255 268.413 260.174C268.602 260.016 268.78 259.845 268.947 259.662L268.942 259.68ZM247.914 265.445C248.898 264.303 249.753 263.052 250.465 261.714C251.409 263.416 252.949 264.641 254.262 266.065C252.153 265.759 250.04 265.521 247.919 265.427L247.914 265.445Z" fill="url(#paint0_linear_1_65)"/>
<path d="M251.326 244.747L252.835 245.061L257.975 252.856L255.705 253.17L251.326 244.747Z" fill="#2F2E41"/>
<path d="M214.777 276.382C215.184 277.763 215.686 279.113 216.278 280.422C217.981 280.057 219.656 279.566 221.291 278.954C220.975 278.448 220.627 277.964 220.25 277.504C219.848 277.046 219.368 276.667 218.832 276.386C218.312 276.153 217.669 276.328 217.113 276.359C216.335 276.389 215.556 276.397 214.777 276.382Z" fill="#FBBEBE"/>
<path d="M218.841 278.465C217.993 278.192 217.472 277.312 217.126 276.463C216.781 275.614 216.501 274.69 215.845 274.065C215.72 274.086 215.602 274.137 215.501 274.215C215.4 274.294 215.32 274.396 215.267 274.514C215.14 274.739 215.066 274.995 214.922 275.21C214.651 275.614 214.169 275.812 213.824 276.158C213.478 276.503 213.264 277.029 212.892 277.374C212.376 277.755 211.774 277.993 211.142 278.066C210.189 278.288 209.268 278.638 208.404 279.107C208.084 279.298 207.743 279.448 207.389 279.556C206.998 279.633 206.598 279.646 206.203 279.597L203.478 279.395C203.236 279.364 202.99 279.376 202.752 279.431C202.474 279.53 202.237 279.722 202.079 279.976C201.92 280.23 201.849 280.531 201.877 280.832C201.913 281.131 202.01 281.419 202.16 281.678C202.311 281.937 202.512 282.161 202.752 282.336C203.226 282.683 203.748 282.956 204.301 283.144C206.675 284.06 209.118 284.776 211.606 285.285V285.838C213.335 286.716 215.237 287.177 217.166 287.185C217.316 287.198 217.466 287.172 217.603 287.108C217.781 286.975 217.905 286.78 217.953 286.56C218.607 284.599 218.989 282.552 219.086 280.481C219.136 279.958 219.098 279.429 218.972 278.919C218.824 278.416 219.331 278.627 218.859 278.429" fill="#2F2E41"/>
<path d="M271.09 267.923C263.01 268.426 255.031 265.992 246.938 265.732C245.934 265.669 244.926 265.736 243.937 265.929C242.907 266.213 241.91 266.61 240.963 267.115C236.628 269.185 232.14 270.9 227.656 272.615L222.511 274.581C221.479 274.972 220.416 275.371 219.318 275.304C218.828 275.273 218.229 275.196 217.949 275.618C217.113 276.889 217.511 278.761 218.063 280.189C218.242 280.638 218.544 281.154 219.025 281.208C219.365 281.184 219.699 281.098 220.009 280.952C220.945 280.696 221.881 281.343 222.844 281.446C224.038 281.576 225.145 280.88 226.269 280.454C228.133 279.749 230.171 279.771 232.131 279.435C235.42 278.873 238.465 277.306 241.317 275.52C242.402 274.842 243.504 274.114 244.747 273.867C246.177 273.58 247.651 273.957 249.056 274.366C252.403 275.338 255.699 276.491 258.929 277.818C260.61 278.568 262.334 279.213 264.091 279.749C267.92 280.784 271.97 280.542 275.657 279.058C276.969 278.532 278.351 277.607 278.426 276.175C278.469 275.358 277.853 274.64 277.441 273.93C277.175 273.481 276.912 273.032 276.623 272.606C275.232 270.522 273.544 267.77 271.09 267.923Z" fill="#2F2E41"/>
<path opacity="0.1" d="M271.09 267.923C263.01 268.426 255.031 265.992 246.938 265.732C245.934 265.669 244.926 265.736 243.937 265.929C242.907 266.213 241.91 266.61 240.963 267.115C236.628 269.185 232.14 270.9 227.656 272.615L222.511 274.581C221.479 274.972 220.416 275.371 219.318 275.304C218.828 275.273 218.229 275.196 217.949 275.618C217.113 276.889 217.511 278.761 218.063 280.189C218.242 280.638 218.544 281.154 219.025 281.208C219.365 281.184 219.699 281.098 220.009 280.952C220.945 280.696 221.881 281.343 222.844 281.446C224.038 281.576 225.145 280.88 226.269 280.454C228.133 279.749 230.171 279.771 232.131 279.435C235.42 278.873 238.465 277.306 241.317 275.52C242.402 274.842 243.504 274.114 244.747 273.867C246.177 273.58 247.651 273.957 249.056 274.366C252.403 275.338 255.699 276.491 258.929 277.818C260.61 278.568 262.334 279.213 264.091 279.749C267.92 280.784 271.97 280.542 275.657 279.058C276.969 278.532 278.351 277.607 278.426 276.175C278.469 275.358 277.853 274.64 277.441 273.93C277.175 273.481 276.912 273.032 276.623 272.606C275.232 270.522 273.544 267.77 271.09 267.923Z" fill="black"/>
<path d="M230.285 276.786C231.551 277.226 232.825 277.633 234.108 278.007C234.83 276.79 236.178 275.946 236.484 274.559C236.501 274.499 236.501 274.435 236.484 274.375C236.45 274.316 236.4 274.269 236.339 274.24C235.417 273.718 234.394 273.411 233.343 273.342C232.512 273.288 232.136 274.177 231.759 274.801C231.628 275.053 230.622 276.903 230.285 276.786Z" fill="#FBBEBE"/>
<path d="M232.064 275.897C231.687 275.832 231.326 275.688 231.006 275.472C230.686 275.256 230.413 274.974 230.205 274.644C230.026 274.325 229.838 273.894 229.479 273.917C229.12 273.939 228.998 274.343 228.924 274.68C228.681 275.938 228.331 277.171 227.878 278.366C227.421 279.565 226.647 280.608 225.643 281.379C225.175 281.711 224.654 281.963 224.195 282.313C223.812 282.663 223.402 282.981 222.97 283.265C222.665 283.408 222.351 283.528 222.029 283.624C221.558 283.793 221.107 284.017 220.686 284.293C220.318 284.515 220.004 284.822 219.772 285.191C219.66 285.378 219.595 285.59 219.581 285.809C219.567 286.028 219.606 286.248 219.693 286.448C219.788 286.611 219.914 286.751 220.065 286.86C220.216 286.969 220.387 287.044 220.568 287.081C220.937 287.144 221.313 287.153 221.684 287.108C223.158 286.996 224.628 286.861 226.098 286.726C226.72 286.687 227.338 286.6 227.948 286.466C228.272 286.385 228.587 286.277 228.906 286.192C229.457 286.048 230.022 285.963 230.59 285.94C230.755 285.928 230.921 285.944 231.08 285.99C231.421 286.102 231.662 286.439 232.012 286.52C232.237 286.544 232.465 286.513 232.677 286.43C233.753 286.196 234.849 286.079 235.949 286.08C236.43 286.053 236.999 285.958 237.218 285.514C237.493 284.962 237.038 284.342 236.854 283.749C236.764 283.37 236.712 282.982 236.701 282.591C236.619 281.626 236.343 280.69 235.892 279.839C235.516 279.129 235.017 278.348 235.267 277.594C235.401 277.359 235.486 277.097 235.516 276.826C235.455 275.61 232.729 276.058 232.064 275.897Z" fill="#2F2E41"/>
<path d="M258.976 254.624C257.545 253.976 256.398 252.806 255.756 251.342C255.625 251.028 255.511 250.7 255.385 250.381C254.959 249.327 254.3 248.39 253.46 247.642C253.37 247.541 253.26 247.46 253.137 247.407C253.013 247.353 252.88 247.328 252.747 247.333C252.618 247.372 252.501 247.446 252.409 247.547C252.316 247.648 252.252 247.772 252.222 247.907C252.147 248.2 252.128 248.505 252.165 248.805C252.24 249.502 252.357 250.193 252.515 250.875L252.909 252.707C252.958 252.988 253.041 253.263 253.154 253.524C253.322 253.831 253.545 254.104 253.81 254.328C254.169 254.669 254.532 254.997 254.899 255.315C255.102 255.504 255.323 255.669 255.56 255.809C255.948 255.998 256.363 256.122 256.789 256.177C258.394 256.483 260.026 256.923 261.378 257.973C261.378 257.973 261.378 256.748 261.347 256.626C261.331 256.271 261.212 255.929 261.006 255.643C260.498 255.082 259.623 254.916 258.976 254.624Z" fill="#FBBEBE"/>
<path opacity="0.1" d="M258.976 254.624C257.545 253.976 256.398 252.806 255.756 251.342C255.625 251.028 255.511 250.7 255.385 250.381C254.959 249.327 254.3 248.39 253.46 247.642C253.37 247.541 253.26 247.46 253.137 247.407C253.013 247.353 252.88 247.328 252.747 247.333C252.618 247.372 252.501 247.446 252.409 247.547C252.316 247.648 252.252 247.772 252.222 247.907C252.147 248.2 252.128 248.505 252.165 248.805C252.24 249.502 252.357 250.193 252.515 250.875L252.909 252.707C252.958 252.988 253.041 253.263 253.154 253.524C253.322 253.831 253.545 254.104 253.81 254.328C254.169 254.669 254.532 254.997 254.899 255.315C255.102 255.504 255.323 255.669 255.56 255.809C255.948 255.998 256.363 256.122 256.789 256.177C258.394 256.483 260.026 256.923 261.378 257.973C261.378 257.973 261.378 256.748 261.347 256.626C261.331 256.271 261.212 255.929 261.006 255.643C260.498 255.082 259.623 254.916 258.976 254.624Z" fill="black"/>
<path d="M275.425 240.616C276.51 240.616 277.389 239.708 277.389 238.587C277.389 237.466 276.51 236.558 275.425 236.558C274.34 236.558 273.461 237.466 273.461 238.587C273.461 239.708 274.34 240.616 275.425 240.616Z" fill="#2F2E41"/>
<path d="M274.208 237.361C273.68 237.237 273.127 237.319 272.655 237.59C272.428 237.796 272.247 238.05 272.125 238.335C271.683 239.11 271.339 239.94 271.102 240.804C270.927 241.545 270.896 242.318 270.664 243.049C270.262 244.396 269.229 245.541 269.111 246.947C269.059 247.575 269.159 248.316 268.713 248.742C268.602 248.838 268.484 248.923 268.359 248.998C268.048 249.212 267.784 249.491 267.585 249.815C267.451 250.107 267.266 250.37 267.038 250.592C266.635 250.898 265.975 250.866 265.778 251.338C265.581 251.809 266.089 252.357 265.97 252.869C265.874 253.286 265.419 253.479 265.096 253.766C264.727 254.167 264.469 254.662 264.347 255.199C263.69 255.326 263.014 255.305 262.366 255.139C261.717 254.972 261.111 254.663 260.59 254.233C261.137 255.621 261.15 257.152 261.172 258.647C261.235 259.125 261.11 259.609 260.826 259.994C262.392 260.03 263.914 260.443 265.441 260.815C266.094 261.04 266.8 261.04 267.453 260.815C267.802 260.623 268.115 260.367 268.376 260.061C269.208 259.195 270.078 258.265 270.279 257.058C270.333 256.378 270.344 255.696 270.314 255.015C270.395 254.174 270.563 253.344 270.817 252.541C271.257 250.872 271.549 249.167 271.692 247.445C271.784 246.381 272.676 245.528 273.149 244.576C274.024 242.78 274.942 240.917 275.012 238.905C275.074 238.25 274.855 237.446 274.208 237.361Z" fill="#2F2E41"/>
<path opacity="0.1" d="M274.208 237.361C273.68 237.237 273.127 237.319 272.655 237.59C272.428 237.796 272.247 238.05 272.125 238.335C271.683 239.11 271.339 239.94 271.102 240.804C270.927 241.545 270.896 242.318 270.664 243.049C270.262 244.396 269.229 245.541 269.111 246.947C269.059 247.575 269.159 248.316 268.713 248.742C268.602 248.838 268.484 248.923 268.359 248.998C268.048 249.212 267.784 249.491 267.585 249.815C267.451 250.107 267.266 250.37 267.038 250.592C266.635 250.898 265.975 250.866 265.778 251.338C265.581 251.809 266.089 252.357 265.97 252.869C265.874 253.286 265.419 253.479 265.096 253.766C264.727 254.167 264.469 254.662 264.347 255.199C263.69 255.326 263.014 255.305 262.366 255.139C261.717 254.972 261.111 254.663 260.59 254.233C261.137 255.621 261.15 257.152 261.172 258.647C261.235 259.125 261.11 259.609 260.826 259.994C262.392 260.03 263.914 260.443 265.441 260.815C266.094 261.04 266.8 261.04 267.453 260.815C267.802 260.623 268.115 260.367 268.376 260.061C269.208 259.195 270.078 258.265 270.279 257.058C270.333 256.378 270.344 255.696 270.314 255.015C270.395 254.174 270.563 253.344 270.817 252.541C271.257 250.872 271.549 249.167 271.692 247.445C271.784 246.381 272.676 245.528 273.149 244.576C274.024 242.78 274.942 240.917 275.012 238.905C275.074 238.25 274.855 237.446 274.208 237.361Z" fill="black"/>
<path d="M272.371 269.67C270.686 268.848 269.457 267.317 268.097 266.006C265.498 263.501 262.322 261.732 259.593 259.384C257.786 257.83 256.168 256.021 254.177 254.719C252.427 253.573 250.441 252.858 248.377 252.631C248.141 252.589 247.899 252.601 247.668 252.667C247.407 252.787 247.18 252.972 247.007 253.206C246.126 254.226 245.342 255.331 244.667 256.506C241.207 262.531 236.294 267.6 232.222 273.208C232.091 273.34 232.014 273.517 232.005 273.705C231.996 273.893 232.056 274.078 232.174 274.222L233 275.888C233.464 276.817 234.208 277.904 235.188 277.72C235.637 277.587 236.04 277.323 236.347 276.961L240.065 273.311L243.963 269.486C246.246 267.241 248.569 264.951 250.061 262.087C251.224 264.156 253.289 265.512 254.706 267.411C255.245 268.13 255.682 268.924 256.163 269.688C256.937 270.913 257.812 272.063 258.687 273.208L263.162 279.067C263.727 279.901 264.427 280.63 265.231 281.222C266.29 281.909 267.581 282.093 268.827 282.205C270.507 282.362 272.193 282.425 273.88 282.394C275.166 282.371 276.504 282.286 277.642 281.698C278.779 281.11 279.746 279.902 279.685 278.586C279.615 277.897 279.395 277.233 279.042 276.642C277.462 273.634 275.371 271.12 272.371 269.67Z" fill="#2F2E41"/>
<path d="M276.632 241.55C277.466 241.55 278.141 240.853 278.141 239.993C278.141 239.132 277.466 238.435 276.632 238.435C275.799 238.435 275.123 239.132 275.123 239.993C275.123 240.853 275.799 241.55 276.632 241.55Z" fill="#E8E8F0"/>
<path d="M276.3 238.82C276.641 239.517 276.7 240.323 276.466 241.065C276.233 241.794 275.906 242.489 275.495 243.13C275.141 243.793 274.717 244.413 274.23 244.98C276.562 245.097 278.824 244.158 280.88 243.018C282.538 242.12 284.191 240.975 285.075 239.265C284.812 239.329 284.539 239.336 284.273 239.286C284.007 239.236 283.754 239.129 283.531 238.973C283.086 238.654 282.687 238.274 282.345 237.841L281.177 236.494C280.901 236.199 280.659 235.872 280.455 235.52C280.2 235.042 280.091 234.496 280.145 233.953C279.68 234.453 279.16 234.896 278.596 235.273C277.761 235.834 276.846 236.238 276.002 236.791C275.705 236.988 275.044 237.307 275.215 237.689C275.385 238.07 276.063 238.389 276.3 238.82Z" fill="#FBBEBE"/>
<path opacity="0.1" d="M276.3 238.82C276.641 239.517 276.7 240.323 276.466 241.065C276.233 241.794 275.906 242.489 275.495 243.13C275.141 243.793 274.717 244.413 274.23 244.98C276.562 245.097 278.824 244.158 280.88 243.018C282.538 242.12 284.191 240.975 285.075 239.265C284.812 239.329 284.539 239.336 284.273 239.286C284.007 239.236 283.754 239.129 283.531 238.973C283.086 238.654 282.687 238.274 282.345 237.841L281.177 236.494C280.901 236.199 280.659 235.872 280.455 235.52C280.2 235.042 280.091 234.496 280.145 233.953C279.68 234.453 279.16 234.896 278.596 235.273C277.761 235.834 276.846 236.238 276.002 236.791C275.705 236.988 275.044 237.307 275.215 237.689C275.385 238.07 276.063 238.389 276.3 238.82Z" fill="black"/>
<path d="M276.33 239.054C276.094 239.396 275.967 239.804 275.967 240.223C275.967 240.642 276.094 241.051 276.33 241.393C276.395 241.478 276.645 242.012 276.767 242.017C276.87 242.008 276.966 241.958 277.034 241.878C277.562 241.311 278.056 240.711 278.513 240.082C278.974 239.444 279.64 238.996 280.394 238.816C281.308 238.667 282.187 239.166 282.988 239.642C283.332 239.817 283.631 240.072 283.863 240.387C284.031 240.699 284.131 241.046 284.156 241.402C284.385 243.542 284.473 245.696 284.418 247.849C284.461 249.401 284.361 250.954 284.121 252.487C283.972 253.277 283.749 254.049 283.644 254.849C283.567 255.552 283.537 256.26 283.552 256.968V259.931C283.533 260.474 283.571 261.017 283.666 261.552C283.846 262.189 284.058 262.817 284.3 263.433C284.513 264.166 284.659 264.917 284.737 265.678L285.131 268.745C285.258 269.714 285.35 270.769 284.777 271.546C284.523 271.901 284.182 272.179 283.902 272.529C282.918 273.814 283.246 275.677 282.808 277.271C282.485 278.44 281.823 279.481 280.91 280.256C280.214 280.862 279.313 281.343 278.412 281.154C277.2 280.921 276.47 279.623 276.137 278.398C275.805 277.172 275.7 275.834 274.969 274.806C274.383 273.957 273.478 273.427 272.66 272.821C271.842 272.215 271.037 271.438 270.857 270.415C270.779 269.966 270.827 269.517 270.783 269.068C270.718 268.496 270.504 267.952 270.164 267.494C269.824 267.036 269.37 266.68 268.849 266.464C268.228 266.217 267.458 266.127 267.1 265.566C267.99 264.992 268.639 264.096 268.919 263.056C269.191 262.031 269.338 260.975 269.357 259.913L269.567 256.348C269.659 254.754 269.702 253.174 270.385 251.742C270.691 251.104 271.072 250.503 271.387 249.869C271.809 248.981 272.168 248.063 272.463 247.122C272.957 245.663 273.456 244.199 273.898 242.722C274.074 242.006 274.339 241.317 274.685 240.67C275.092 239.996 275.63 239.188 276.33 239.054Z" fill="#E8E8F0"/>
<path d="M268.617 262.216L269.536 262.248L269.733 260.825C269.759 260.54 269.823 260.26 269.925 259.994C270.078 259.713 270.255 259.447 270.454 259.199C271.36 257.888 271.294 256.146 271.517 254.552C271.815 252.429 272.681 250.435 273.538 248.478L275.323 244.396C275.482 244.061 275.609 243.711 275.704 243.35C275.782 242.953 275.818 242.548 275.813 242.143C275.813 241.514 276.014 239.22 276.027 238.587C276.027 238.353 275.529 238.483 275.424 238.277C275.201 237.828 274.894 239.049 274.474 239.319C274.079 239.629 273.79 240.062 273.652 240.553C273.267 241.581 273.031 242.663 272.672 243.696C272.357 244.754 271.784 245.71 271.005 246.475C270.642 246.807 270.218 247.068 269.872 247.418C268.761 248.545 268.656 250.323 268.617 251.908C268.591 252.891 268.411 262.216 268.617 262.216Z" fill="#2F2E41"/>
<path d="M281.85 237.352C280.975 237.711 280.467 238.699 280.218 239.66C279.969 240.621 279.864 241.635 279.382 242.488C278.262 244.491 275.406 245.075 274.614 247.239C274.413 247.969 274.305 248.724 274.295 249.484C274.155 251.033 273.656 252.532 273.507 254.081C273.43 255.286 273.458 256.496 273.591 257.695L274.592 269.921C274.787 271.722 274.685 273.543 274.29 275.309C275.318 275.461 276.366 275.283 277.291 274.801C278.232 274.352 279.089 273.76 279.99 273.248C281.543 272.35 283.258 271.744 284.614 270.554C284.86 270.357 285.072 270.119 285.24 269.849C285.457 269.335 285.605 268.793 285.677 268.237C285.792 267.805 285.938 267.382 286.115 266.971C286.617 265.739 287.055 264.48 287.427 263.2C287.682 262.351 287.882 261.485 288.026 260.609C288.136 259.913 288.192 259.208 288.254 258.508C288.324 257.406 288.537 256.319 288.888 255.275C289.756 252.785 290.247 250.173 290.345 247.531C290.375 247.149 290.35 246.764 290.27 246.39C290.119 245.936 289.917 245.502 289.667 245.097C289.251 244.293 289.002 243.409 288.608 242.596C287.733 240.755 286.163 239.359 284.522 238.187C283.682 237.617 282.759 236.997 281.85 237.352Z" fill="#2F2E41"/>
<path d="M260.967 257.3C260.256 256.919 259.613 256.418 259.064 255.819C258.815 255.518 258.626 255.181 258.355 254.885C257.713 254.182 256.879 253.694 255.962 253.484C255.052 253.278 254.121 253.186 253.189 253.21C252.567 253.166 251.942 253.244 251.347 253.439C251.049 253.539 250.78 253.715 250.566 253.951C250.352 254.186 250.199 254.474 250.123 254.786C249.987 255.549 250.472 256.29 251.054 256.775C251.595 257.229 252.232 257.547 252.913 257.705C253.469 257.803 254.03 257.871 254.593 257.907C257.9 258.261 260.853 260.107 263.749 261.79C266.295 263.266 268.89 264.647 271.535 265.934C271.64 265.122 271.684 264.302 271.667 263.483C271.667 262.872 271.623 261.938 271.059 261.579C270.403 261.157 269.309 261.063 268.583 260.811C266.878 260.241 265.213 259.551 263.6 258.746C262.686 258.293 261.811 257.812 260.967 257.3Z" fill="#FBBEBE"/>
<path d="M275.424 238.124C278.678 238.124 281.316 235.401 281.316 232.041C281.316 228.681 278.678 225.957 275.424 225.957C272.169 225.957 269.531 228.681 269.531 232.041C269.531 235.401 272.169 238.124 275.424 238.124Z" fill="#FBBEBE"/>
<path d="M283.536 244.248C283.067 244.924 282.683 245.659 282.394 246.434C281.663 247.974 280.522 249.294 279.953 250.924C279.349 252.617 279.371 254.633 278.203 255.966C277.968 256.168 277.791 256.432 277.691 256.73C277.684 256.915 277.664 257.099 277.63 257.282C277.464 257.767 276.69 257.789 276.545 258.283C276.506 258.427 276.545 258.584 276.475 258.732C276.357 259.051 275.95 259.096 275.675 259.289C275.102 259.688 275.237 260.613 274.8 261.188C274.622 261.401 274.392 261.563 274.134 261.656C273.876 261.749 273.599 261.77 273.33 261.718C272.794 261.602 272.278 261.403 271.799 261.13C271.631 261.032 271.444 260.973 271.252 260.954C271.024 260.959 270.802 261.036 270.618 261.174C269.529 261.884 269.017 263.294 269.026 264.623C269.102 265.952 269.409 267.256 269.931 268.475C269.993 268.685 270.095 268.881 270.233 269.05C270.592 269.44 271.221 269.377 271.703 269.157C272.153 268.883 272.633 268.663 273.133 268.502C274.043 268.331 274.935 268.978 275.858 268.924C276.534 268.818 277.169 268.53 277.7 268.089C278.637 267.505 279.476 266.769 280.185 265.911C280.587 265.368 280.885 264.748 281.239 264.169C281.691 263.458 282.188 262.777 282.726 262.131L286.125 257.861C286.466 257.457 286.772 257.022 287.039 256.563C287.346 255.943 287.585 255.289 287.752 254.615C288.117 253.49 288.353 252.325 288.457 251.144C288.474 250.167 288.391 249.19 288.207 248.23C288.093 247.276 287.847 246.343 287.477 245.46C286.72 243.889 284.922 242.587 283.536 244.248Z" fill="#2F2E41"/>
<path d="M295.372 236.324C295.377 235.245 295.132 234.181 294.657 233.218C294.183 232.256 293.492 231.423 292.642 230.788C292.617 228.873 291.929 227.03 290.703 225.586C289.476 224.143 287.79 223.194 285.945 222.908C285.588 221.094 284.62 219.468 283.209 218.315C281.798 217.163 280.037 216.558 278.235 216.608C276.432 216.658 274.705 217.359 273.357 218.588C272.009 219.817 271.127 221.495 270.866 223.326C268.417 222.76 266.177 223.496 265.77 225.045C265.333 226.666 267.082 228.561 269.672 229.279C270.484 229.515 271.329 229.601 272.17 229.535C272.772 230.443 273.553 231.211 274.461 231.791C275.37 232.371 276.386 232.749 277.446 232.902C277.757 234.367 278.46 235.713 279.476 236.79C280.493 237.866 281.782 238.63 283.198 238.995C283.59 239.967 284.198 240.831 284.974 241.518C284.974 241.707 284.943 241.9 284.943 242.097C284.915 242.788 285.023 243.477 285.261 244.123C285.499 244.769 285.862 245.359 286.328 245.858C286.794 246.356 287.353 246.753 287.972 247.024C288.591 247.295 289.257 247.435 289.93 247.435C290.603 247.435 291.269 247.295 291.888 247.024C292.508 246.753 293.067 246.356 293.533 245.858C293.999 245.359 294.361 244.769 294.599 244.123C294.837 243.477 294.945 242.788 294.917 242.097C294.917 241.323 294.755 240.557 294.44 239.853C295.055 238.784 295.377 237.565 295.372 236.324V236.324Z" fill="#F86D70"/>
<path opacity="0.1" d="M267.432 225.356C267.839 223.807 270.057 223.071 272.529 223.636C272.816 221.777 273.734 220.081 275.122 218.849C276.509 217.617 278.275 216.927 280.11 216.902C280.28 216.902 280.451 216.902 280.617 216.902C279.908 216.68 279.171 216.568 278.43 216.569C276.595 216.595 274.829 217.284 273.442 218.517C272.055 219.749 271.136 221.444 270.849 223.304C268.399 222.738 266.159 223.475 265.753 225.024C265.315 226.644 267.065 228.539 269.655 229.257C270.136 229.395 270.63 229.482 271.129 229.518C268.67 228.782 267.017 226.941 267.432 225.356Z" fill="black"/>
<path opacity="0.1" d="M286.605 242.412C286.605 242.214 286.605 242.021 286.635 241.828C285.859 241.143 285.251 240.28 284.859 239.31C283.444 238.941 282.156 238.175 281.14 237.098C280.125 236.022 279.42 234.676 279.107 233.212C278.047 233.06 277.03 232.682 276.122 232.102C275.213 231.522 274.433 230.753 273.831 229.845C273.341 229.885 272.849 229.871 272.361 229.805C272.966 230.641 273.727 231.346 274.6 231.878C275.472 232.41 276.439 232.758 277.444 232.903C277.756 234.367 278.459 235.713 279.475 236.79C280.491 237.866 281.78 238.63 283.197 238.995C283.589 239.967 284.197 240.831 284.973 241.519C284.973 241.707 284.942 241.9 284.942 242.098C284.92 243.474 285.429 244.804 286.358 245.796C287.288 246.789 288.562 247.364 289.903 247.396C288.924 247.008 288.084 246.323 287.495 245.433C286.905 244.542 286.595 243.489 286.605 242.412Z" fill="black"/>
<path d="M278.12 234.269C278.52 233.957 278.517 233.261 278.112 232.714C277.707 232.167 277.054 231.977 276.654 232.289C276.254 232.601 276.258 233.297 276.663 233.844C277.067 234.391 277.72 234.581 278.12 234.269Z" fill="#FBBEBE"/>
<path d="M137.271 264.543L143.098 261.027C142.311 259.646 141.304 258.409 140.119 257.368L129.13 260.875L137.739 255.68C135.608 254.482 133.209 253.874 130.778 253.916C128.348 253.958 125.971 254.649 123.88 255.921C121.789 257.193 120.056 259.001 118.853 261.169C117.65 263.336 117.017 265.788 117.018 268.283C117.018 276.216 123.286 276.49 131.016 276.49C138.745 276.49 145.014 276.216 145.014 268.283C145.019 266.272 144.609 264.283 143.811 262.446L137.271 264.543Z" fill="#25CFA0"/>
<path opacity="0.1" d="M138.754 272.256C138.134 271.617 137.44 271.058 136.689 270.59C135.635 269.867 134.537 269.131 133.291 268.888C132.197 268.673 131.068 268.857 129.953 268.789C128.016 268.668 126.193 267.81 124.839 266.383C124.043 265.539 123.417 264.502 122.459 263.855C121.389 263.202 120.125 262.965 118.899 263.186C118.543 263.237 118.191 263.311 117.844 263.406C117.296 264.97 117.016 266.62 117.018 268.282C117.018 276.216 123.286 276.489 131.016 276.489C134.769 276.489 138.172 276.427 140.688 275.452L140.25 274.649C139.853 273.789 139.35 272.985 138.754 272.256Z" fill="black"/>
</g>
<defs>
<linearGradient id="paint0_linear_1_65" x1="248.251" y1="287.184" x2="248.251" y2="215.51" gradientUnits="userSpaceOnUse">
<stop stop-color="#808080" stop-opacity="0.25"/>
<stop offset="0.54" stop-color="#808080" stop-opacity="0.12"/>
<stop offset="1" stop-color="#808080" stop-opacity="0.1"/>
</linearGradient>
<clipPath id="clip0_1_65">
<rect width="500" height="298" fill="white"/>
</clipPath>
</defs>
</svg>
