<svg width="300" height="159" viewBox="0 0 300 159" fill="none" xmlns="http://www.w3.org/2000/svg">
<g clip-path="url(#clip0_1_212)">
<path d="M130.942 1.85658L106.789 89.2197L258.201 133.015L282.354 45.6517L130.942 1.85658Z" fill="#3F3D56"/>
<path d="M133.559 6.79283C134.251 6.79283 134.813 6.21857 134.813 5.51019C134.813 4.8018 134.251 4.22754 133.559 4.22754C132.866 4.22754 132.305 4.8018 132.305 5.51019C132.305 6.21857 132.866 6.79283 133.559 6.79283Z" fill="#1D3F5A"/>
<path d="M137.42 7.91002C138.113 7.91002 138.674 7.33576 138.674 6.62737C138.674 5.91899 138.113 5.34473 137.42 5.34473C136.727 5.34473 136.166 5.91899 136.166 6.62737C136.166 7.33576 136.727 7.91002 137.42 7.91002Z" fill="#1D3F5A"/>
<path d="M141.281 9.02623C141.974 9.02623 142.535 8.45197 142.535 7.74358C142.535 7.0352 141.974 6.46094 141.281 6.46094C140.589 6.46094 140.027 7.0352 140.027 7.74358C140.027 8.45197 140.589 9.02623 141.281 9.02623Z" fill="#1D3F5A"/>
<path d="M211.299 57.2917C209.272 56.8997 207.187 56.9501 205.18 57.4394C205.765 55.3873 205.912 53.231 205.613 51.1157C203.546 51.8808 201.677 53.115 200.144 54.7257C199.662 52.5325 198.701 50.4793 197.333 48.7207C195.995 50.3625 195.016 52.2785 194.464 54.3396C193.005 52.8479 191.254 51.6882 189.327 50.9363C189.327 50.9363 188.413 55.687 190.612 59.5852C192.569 63.0547 196.329 64.6783 197.132 64.9937L197.151 65.0168L197.161 65.0051C197.243 65.0367 197.289 65.0528 197.289 65.0528C197.289 65.0528 197.306 64.9616 197.33 64.7988C197.344 64.7805 197.359 64.7619 197.375 64.7414C197.378 64.7674 197.381 64.7911 197.384 64.8144C197.321 64.9658 197.289 65.0529 197.289 65.0529C197.289 65.0529 197.336 65.0636 197.421 65.0803L197.424 65.0957L197.452 65.0861C198.298 65.248 202.332 65.8787 205.776 63.9712C209.645 61.828 211.299 57.2917 211.299 57.2917Z" fill="#1D3F5A"/>
<path d="M203.796 45.1561C205.596 45.1561 207.056 43.663 207.056 41.8212C207.056 39.9794 205.596 38.4863 203.796 38.4863C201.995 38.4863 200.535 39.9794 200.535 41.8212C200.535 43.663 201.995 45.1561 203.796 45.1561Z" fill="#1D3F5A"/>
<path d="M244.732 85.1202L146.75 56.7793L146.147 58.9597L244.129 87.3007L244.732 85.1202Z" fill="#1D3F5A"/>
<path d="M169.811 75.1793L152.918 70.293L148.141 87.5724L165.034 92.4588L169.811 75.1793Z" fill="#1D3F5A"/>
<path d="M201.186 84.2536L184.293 79.3672L179.516 96.6467L196.409 101.533L201.186 84.2536Z" fill="#1D3F5A"/>
<path d="M232.559 93.3287L215.666 88.4424L210.889 105.722L227.782 110.608L232.559 93.3287Z" fill="#1D3F5A"/>
<path d="M161.907 95.2861L149.357 91.6562L148.948 93.1373L161.497 96.7672L161.907 95.2861Z" fill="#1D3F5A"/>
<path d="M193.282 104.361L180.732 100.731L180.323 102.213L192.872 105.842L193.282 104.361Z" fill="#1D3F5A"/>
<path d="M224.655 113.436L212.105 109.806L211.696 111.287L224.245 114.917L224.655 113.436Z" fill="#1D3F5A"/>
<path d="M85.5846 123.029C131.938 123.029 169.515 121.608 169.515 119.855C169.515 118.102 131.938 116.681 85.5846 116.681C39.2312 116.681 1.6543 118.102 1.6543 119.855C1.6543 121.608 39.2312 123.029 85.5846 123.029Z" fill="#D0CDE1"/>
<path d="M234.689 159C270.76 159 300.001 157.579 300.001 155.826C300.001 154.073 270.76 152.652 234.689 152.652C198.618 152.652 169.377 154.073 169.377 155.826C169.377 157.579 198.618 159 234.689 159Z" fill="#D0CDE1"/>
<path d="M202.654 131.19H221.497V139.25H210.534V147.31H221.498V155.37H202.654V131.19ZM225.266 131.19H244.108V138.199H233.145V139.601H244.108V155.72H225.266V148.361H236.229V146.959H225.265V131.19H225.266ZM247.877 131.19H266.72V138.199H255.757V139.601H266.72V155.72H247.877V148.361H258.84V146.959H247.878V131.19H247.877Z" fill="#3F3D56"/>
<path d="M37.9727 94.3115H45.7458V102.167H52.8565V94.3115H60.6301V118.099H52.857V110.134H45.7462V118.099H37.9731V94.3115H37.9727ZM70.8515 102.2H64.0094V94.3115H85.4723V102.2H78.626V118.099H70.8529V102.2H70.8515ZM88.8785 94.3115H96.9835L101.969 102.67L106.95 94.3115H115.058V118.099H107.317V106.309L101.969 114.766H101.835L96.484 106.309V118.099H88.8785V94.3115ZM118.927 94.3115H126.702V110.236H137.633V118.099H118.926V94.3115H118.927Z" fill="#3F3D56"/>
<path d="M24.2432 110.662L23.6055 118.058L28.7093 117.623V111.315L24.2432 110.662Z" fill="#FFB8B8"/>
<path d="M19.5654 110.662L20.2034 118.058L15.0996 117.623V111.315L19.5654 110.662Z" fill="#FFB8B8"/>
<path d="M32.9625 53.8896C32.9625 53.8896 34.6638 64.3307 34.6638 65.8533C34.6638 67.376 34.0258 77.1645 32.9625 79.1222C31.8992 81.0799 31.6865 81.9499 32.1118 82.82C32.5372 83.6901 32.3245 83.4726 32.1118 84.1252C31.8992 84.7777 31.4739 84.5602 32.1118 85.4303C32.3724 85.8133 32.512 86.2688 32.512 86.7354C32.512 87.202 32.3724 87.6575 32.1118 88.0406C31.6865 88.6931 32.9625 106.312 31.2612 107.618C29.5599 108.923 29.1346 113.273 29.1346 113.273L23.6053 112.621V107.835C23.6053 107.835 22.3294 104.355 23.18 102.179C24.0307 100.004 24.456 88.4756 24.456 88.4756C24.456 88.4756 24.2433 87.388 24.456 86.7354C24.6686 86.0829 24.456 85.6478 24.0307 85.4303C23.6053 85.2128 23.3927 84.3427 23.3927 84.3427L22.7547 68.4636L20.2027 84.1251C20.2027 84.1251 22.7547 105.442 20.2027 108.27V113.273H14.6735L15.5241 107.835C15.5241 107.835 13.8228 102.832 14.6735 101.744C15.5241 100.657 12.1215 83.2551 12.5469 82.6025C12.9722 81.9499 12.7595 81.7324 12.5469 81.2974C12.3342 80.8623 11.6962 80.4273 11.9089 79.9922C12.1215 79.5572 11.9089 78.6871 11.9089 78.6871C11.9089 78.6871 7.86828 58.2401 9.78224 56.2824C11.6962 54.3247 32.9625 53.8896 32.9625 53.8896Z" fill="#2F2E41"/>
<path d="M24.8811 115.23C24.8811 115.23 25.3064 113.144 28.709 113.861C28.709 113.861 29.5597 115.665 29.5597 116.535C29.5597 117.405 30.4103 123.279 30.4103 123.279C30.4103 123.279 33.8129 129.152 29.5597 129.152C25.3064 129.152 23.8178 127.629 23.6051 126.106C23.3924 124.584 23.8178 124.149 22.9671 123.496C22.1165 122.843 21.6911 122.843 21.9038 121.973C22.1165 121.103 22.5418 116.753 22.5418 116.753C22.5418 116.753 22.7545 113.49 23.9241 114.36L25.0937 115.23" fill="#2F2E41"/>
<path d="M18.9272 115.23C18.9272 115.23 18.5018 113.144 15.0992 113.861C15.0992 113.861 14.2486 115.665 14.2486 116.535C14.2486 117.405 13.3979 123.279 13.3979 123.279C13.3979 123.279 9.99533 129.152 14.2486 129.152C18.5018 129.152 19.9905 127.629 20.2031 126.106C20.4158 124.584 19.9905 124.149 20.8411 123.496C21.6918 122.843 22.1171 122.843 21.9045 121.973C21.6918 121.103 21.2665 116.753 21.2665 116.753C21.2665 116.753 21.0538 113.49 19.8842 114.36L18.7145 115.23" fill="#2F2E41"/>
<path d="M25.0935 13.8653C28.2646 13.8653 30.8354 11.2358 30.8354 7.99223C30.8354 4.74861 28.2646 2.11914 25.0935 2.11914C21.9223 2.11914 19.3516 4.74861 19.3516 7.99223C19.3516 11.2358 21.9223 13.8653 25.0935 13.8653Z" fill="#FFB8B8"/>
<path d="M20.4162 8.8623C20.4162 8.8623 18.0769 18.2157 17.6516 18.4333C17.2263 18.6508 27.4341 19.5209 27.4341 19.5209C27.4341 19.5209 24.8821 11.4726 27.4341 10.1674L20.4162 8.8623Z" fill="#FFB8B8"/>
<path d="M18.9208 14.5627L18.9205 14.5615L11.9082 19.5214L13.1842 58.4577C13.1842 58.4577 22.5413 57.3701 24.668 57.5876C26.7946 57.8052 33.5998 55.63 33.5998 55.63L30.619 19.0431C30.5608 18.3282 30.2544 17.6582 29.7553 17.1541C29.2562 16.6501 28.5973 16.3453 27.8977 16.2949L26.6205 16.2027C26.6205 16.2027 25.3446 19.4339 21.5058 17.7669C20.8586 17.4789 20.2871 17.0386 19.8378 16.4818C19.3886 15.9249 19.0744 15.2674 18.9208 14.5627V14.5627Z" fill="#D0CDE1"/>
<path d="M19.0907 14.207L10.42 18.4332L8.71867 43.4482C8.71867 43.4482 5.31607 58.4572 8.08069 62.8076C10.8453 67.158 15.5239 67.5931 15.5239 67.5931C15.5239 67.5931 21.6911 42.5781 19.9898 34.0948C18.2885 25.6114 19.0907 14.207 19.0907 14.207Z" fill="#575A89"/>
<path d="M2.76542 51.9316V55.1945C2.76542 55.1945 1.48944 62.3727 5.53003 62.1552C9.57062 61.9376 7.65666 54.3244 7.65666 54.3244L6.38068 51.9316H2.76542Z" fill="#FFB8B8"/>
<path d="M40.194 58.4575L39.7687 62.1554C39.7687 62.1554 41.8953 69.5511 37.8547 69.7686C33.8141 69.9862 36.7471 62.2008 36.7471 62.2008L38.0674 58.0225L40.194 58.4575Z" fill="#FFB8B8"/>
<path d="M26.4927 15.4424C30.3676 16.4186 33.9583 18.3279 36.9658 21.0111L37.0025 21.0439L34.0253 37.1405L33.5999 43.0136C33.5999 43.0136 41.4685 71.7264 32.324 67.5935C32.324 67.5935 24.4554 42.5785 25.5187 31.0499C26.5821 19.5212 26.4927 15.4424 26.4927 15.4424Z" fill="#575A89"/>
<path d="M34.2383 20.8257C34.451 20.6081 37.0029 21.1279 37.0029 21.1279C37.0029 21.1279 41.6815 38.0099 41.6815 40.8376C41.6815 43.6654 42.3195 59.762 42.3195 59.762L36.7059 60.3408L32.1621 37.9761L34.2383 20.8257Z" fill="#575A89"/>
<path d="M11.9091 18.4336H10.4205C10.4205 18.4336 6.16722 20.1738 5.95456 22.1315C5.7419 24.0892 0 43.8836 0 43.8836L1.48864 53.8896L7.01787 53.0195L8.08119 41.9259L13.6104 29.7447L11.9091 18.4336Z" fill="#575A89"/>
<path d="M23.9783 9.63148L24.1984 8.06177C24.2497 7.6959 24.4591 7.21483 24.8071 7.31433C25.1031 7.39897 25.748 7.65814 25.856 7.57991C26.2603 7.28693 26.8722 7.79922 27.2974 7.53895C27.4755 7.42991 27.5917 7.19629 27.7988 7.1807C27.9377 7.18978 28.0686 7.25043 28.1669 7.35126C28.4429 7.59678 28.7681 7.77749 29.1197 7.8807C29.2961 7.92983 29.4821 7.92981 29.6585 7.88063C29.8349 7.83146 29.9952 7.73493 30.1228 7.60104C30.1679 7.52972 30.2286 7.47016 30.3002 7.42712C30.3842 7.40235 30.4738 7.40657 30.5552 7.43912L31.6416 7.74167C31.8014 7.14911 31.8342 6.52824 31.7378 5.92152C31.6414 5.31479 31.4181 4.7365 31.0831 4.22618C30.6424 3.61428 30.1081 3.07906 29.5008 2.64112C28.828 2.1176 28.1337 1.62518 27.4178 1.16387C26.6589 0.614637 25.7974 0.231291 24.8872 0.0377572C23.9711 -0.104542 22.9452 0.150044 22.369 0.892305C22.0979 0.691648 21.8942 0.410135 21.7857 0.0863724C21.7211 0.146502 21.6702 0.22041 21.6365 0.302872C21.6029 0.385333 21.5874 0.47434 21.5911 0.563613C21.5947 0.652886 21.6175 0.740245 21.6578 0.819526C21.6981 0.898806 21.7549 0.968076 21.8242 1.02244L20.9054 0.422306C20.6471 0.699701 21.1518 1.2027 20.9317 1.51267C20.8652 1.58933 20.7797 1.64637 20.6844 1.67786C20.1855 1.87675 19.7282 2.17111 19.3371 2.54518C18.842 3.12219 18.4794 3.80529 18.2761 4.54434C17.7286 6.15095 17.3307 7.99342 18.1086 9.49732C18.1968 9.66781 19.3609 12.4819 19.516 12.5916C20.0402 12.9626 19.6989 12.0649 20.0746 12.5916C20.3692 13.0047 20.314 11.4237 20.7519 11.7707C20.9235 11.8963 21.1271 11.9684 21.3379 11.9781C21.5487 11.9878 21.7578 11.9347 21.9398 11.8254C22.1213 11.6966 22.0628 10.9816 21.9649 10.3251C21.9461 10.2 21.9577 10.0721 21.9985 9.95271C22.0393 9.83327 22.1081 9.7259 22.199 9.64C22.2898 9.5541 22.3998 9.4923 22.5194 9.46001C22.639 9.42772 22.7645 9.42594 22.8849 9.45481C23.4302 9.58601 23.9689 9.69812 23.9783 9.63148Z" fill="#2F2E41"/>
<path opacity="0.2" d="M34.7695 40.5117L37.1086 60.3063H35.6201L34.7695 40.5117Z" fill="black"/>
<path opacity="0.2" d="M10.1007 32.8984L8.91797 40.5117L11.164 32.8984H10.5259H10.1007Z" fill="black"/>
</g>
<defs>
<clipPath id="clip0_1_212">
<rect width="300" height="159" fill="white"/>
</clipPath>
</defs>
</svg>
