<svg width="500" height="460" viewBox="0 0 500 460" fill="none" xmlns="http://www.w3.org/2000/svg">
<g clip-path="url(#clip0_1_12)">
<path d="M499.718 458.436H-67.375V459.644H499.718V458.436Z" fill="#3F3D56"/>
<path d="M219.703 124.639H217.285V58.4251C217.285 53.3925 216.293 48.4092 214.366 43.7597C212.439 39.1102 209.615 34.8856 206.055 31.327C202.494 27.7684 198.267 24.9456 193.615 23.0197C188.963 21.0938 183.978 20.1025 178.942 20.1025H38.5868C33.5516 20.1025 28.5657 21.0938 23.9137 23.0196C19.2618 24.9455 15.0349 27.7683 11.4745 31.3269C7.91402 34.8855 5.08972 39.1101 3.16282 43.7596C1.23591 48.4091 0.244151 53.3924 0.244141 58.425V421.677C0.244133 431.841 4.28378 441.589 11.4744 448.775C18.665 455.962 28.4176 460 38.5867 460H178.942C189.111 460 198.864 455.962 206.055 448.775C213.245 441.589 217.285 431.841 217.285 421.677V171.77H219.703L219.703 124.639Z" fill="#1D3F5A"/>
<path d="M209.127 58.6924V421.41C209.127 429.001 206.11 436.28 200.74 441.648C195.37 447.015 188.087 450.03 180.492 450.03H39.4572C35.6971 450.03 31.9739 449.29 28.5002 447.851C25.0264 446.413 21.8702 444.305 19.2117 441.647C16.5532 438.989 14.4445 435.834 13.006 432.362C11.5676 428.89 10.8275 425.168 10.8281 421.41V58.6924C10.8275 54.9343 11.5676 51.2129 13.006 47.7407C14.4445 44.2684 16.5532 41.1134 19.2117 38.4557C21.8702 35.798 25.0264 33.6898 28.5002 32.2513C31.9739 30.8129 35.6971 30.0725 39.4572 30.0723H56.5718C55.7279 32.1369 55.4053 34.3773 55.6325 36.596C55.8597 38.8146 56.6296 40.9433 57.8744 42.7943C59.1192 44.6453 60.8006 46.1617 62.7703 47.2097C64.74 48.2577 66.9374 48.8052 69.1688 48.8038H149.577C151.808 48.805 154.005 48.2573 155.975 47.2091C157.944 46.1608 159.625 44.6443 160.869 42.7932C162.113 40.9422 162.883 38.8135 163.109 36.595C163.336 34.3765 163.013 32.1364 162.168 30.0723H180.492C188.087 30.0724 195.37 33.0878 200.74 38.4551C206.11 43.8224 209.127 51.1019 209.127 58.6924V58.6924Z" fill="white"/>
<path d="M74.5749 127.502C95.2827 127.502 112.07 110.724 112.07 90.027C112.07 69.33 95.2827 52.5518 74.5749 52.5518C53.8671 52.5518 37.0801 69.33 37.0801 90.027C37.0801 110.724 53.8671 127.502 74.5749 127.502Z" fill="#1D3F5A"/>
<path d="M169.425 269.6C172.175 241.715 163.321 218.017 149.647 216.67C135.974 215.322 122.659 236.835 119.909 264.72C117.158 292.605 126.012 316.302 139.686 317.65C153.359 318.997 166.674 297.484 169.425 269.6Z" fill="#1D3F5A"/>
<path d="M138.8 350.029C134.75 289.59 150.41 231.31 150.569 230.729L152.466 231.245C152.308 231.823 136.734 289.798 140.761 349.898L138.8 350.029Z" fill="#1D3F5A"/>
<path d="M167.534 258.45L143.965 268.213L144.718 270.028L168.286 260.266L167.534 258.45Z" fill="#1D3F5A"/>
<path d="M121.849 260.004L120.756 261.637L141.96 275.818L143.053 274.185L121.849 260.004Z" fill="#1D3F5A"/>
<path d="M141.285 188.202C146.665 133.662 129.346 87.3125 102.603 84.677C75.859 82.0415 49.8173 124.118 44.4371 178.658C39.0569 233.197 56.3754 279.547 83.1191 282.182C109.863 284.818 135.904 242.741 141.285 188.202Z" fill="#25CFA0"/>
<path d="M82.3239 345.45C74.4133 227.394 105.002 113.559 105.312 112.423L107.209 112.939C106.9 114.073 76.3977 227.602 84.2853 345.32L82.3239 345.45Z" fill="#1D3F5A"/>
<path d="M137.948 167.264L91.8496 186.358L92.6023 188.174L138.701 169.079L137.948 167.264Z" fill="#1D3F5A"/>
<path d="M47.7126 170.214L46.6191 171.847L88.0914 199.583L89.1848 197.95L47.7126 170.214Z" fill="#1D3F5A"/>
<path d="M279.676 141.825C287.038 67.1924 263.339 3.76678 226.742 0.16034C190.146 -3.4461 154.51 54.1323 147.147 128.765C139.785 203.398 163.484 266.824 200.081 270.43C236.677 274.037 272.313 216.458 279.676 141.825Z" fill="#1D3F5A"/>
<path d="M199.355 356.983C188.534 195.492 230.377 39.7765 230.801 38.2227L232.698 38.7393C232.274 40.2903 190.519 195.7 201.317 356.853L199.355 356.983Z" fill="#3F3D56"/>
<path d="M275.25 113.507L212.168 139.637L212.921 141.452L276.003 115.323L275.25 113.507Z" fill="#3F3D56"/>
<path d="M151.429 117.509L150.336 119.143L207.088 157.097L208.181 155.464L151.429 117.509Z" fill="#3F3D56"/>
<path d="M10.8267 354.951L9.61719 422.952C9.61719 439.041 23.6415 452.085 39.4558 452.085H180.491C196.305 452.085 210.335 439.041 210.335 422.952L209.126 355.548C138.024 328.002 72.2764 329.729 10.8267 354.951Z" fill="#1D3F5A"/>
<path d="M311.704 118.516L319.211 112.515C313.379 111.872 310.983 115.051 310.002 117.567C305.446 115.676 300.486 118.154 300.486 118.154L315.507 123.604C314.749 121.581 313.43 119.816 311.704 118.516V118.516Z" fill="#3F3D56"/>
<path d="M128.218 65.5363L135.725 59.5352C129.893 58.8921 127.497 62.0711 126.516 64.5872C121.96 62.6964 117 65.1745 117 65.1745L132.02 70.6245C131.263 68.6016 129.944 66.8366 128.218 65.5363V65.5363Z" fill="#1D3F5A"/>
<path d="M427.501 41.9006L435.008 35.8995C429.176 35.2564 426.78 38.4353 425.799 40.9515C421.243 39.0606 416.283 41.5387 416.283 41.5387L431.304 46.9888C430.546 44.9659 429.227 43.2009 427.501 41.9006V41.9006Z" fill="#3F3D56"/>
<path d="M415.633 317.914L415.505 328.137C415.492 329.124 415.261 330.096 414.828 330.982C414.395 331.869 413.77 332.648 412.999 333.265C412.228 333.881 411.329 334.319 410.369 334.546C409.408 334.774 408.409 334.785 407.443 334.58V334.58C406.453 334.37 405.524 333.938 404.726 333.316C403.928 332.695 403.282 331.9 402.836 330.992C402.391 330.084 402.158 329.087 402.154 328.075C402.151 327.064 402.378 326.065 402.817 325.155L406.236 318.073L413.322 266.681L410.602 232.339L423.905 231.702L426.735 270.984L415.633 317.914Z" fill="#FFB9B9"/>
<path d="M350.453 372.227L337.662 441.061L344.057 440.078L367.67 370.752L350.453 372.227Z" fill="#FFB9B9"/>
<path d="M411.699 372.964L419.816 443.52L426.703 442.536L428.425 372.473L411.699 372.964Z" fill="#FFB9B9"/>
<path d="M484.504 352.314C466.168 367.038 444.697 388.662 423.32 380.606C401.013 372.199 375.268 371.668 346.271 375.423C353.197 332.006 361.749 290.926 372.836 253.487L409.731 259.387C410.301 260.018 408.924 263.427 409.485 264.058C419.856 275.732 430.434 284.779 436.826 296.803C446.244 314.697 458.99 330.631 474.381 343.752L484.504 352.314Z" fill="#E6E6E6"/>
<path opacity="0.5" d="M499.999 359.935C481.663 375.075 443.22 400.35 421.843 392.066C399.536 383.422 373.053 384.1 344.057 387.961C345.433 379.091 346.9 370.278 348.46 361.521C354.744 326.242 469.301 338.634 484.749 352.069L499.999 359.935Z" fill="#E6E6E6"/>
<path d="M426.16 233.904C419.262 231.888 412.229 232.889 405.104 235.985L407.685 216.599C407.423 214.463 408.021 212.311 409.347 210.616C410.673 208.921 412.618 207.822 414.755 207.56C416.892 207.299 419.045 207.896 420.741 209.222C422.437 210.547 423.537 212.491 423.798 214.627L426.16 233.904Z" fill="#2F2E41"/>
<path d="M394.725 193.257C402.332 193.257 408.499 187.094 408.499 179.491C408.499 171.887 402.332 165.724 394.725 165.724C387.118 165.724 380.951 171.887 380.951 179.491C380.951 187.094 387.118 193.257 394.725 193.257Z" fill="#FFB9B9"/>
<path d="M420.307 217.841L390.053 210.712C394.544 204.259 393.625 196.695 390.053 188.587L404.811 185.637C406.444 191.233 408.426 196.354 411.206 200.387L420.307 217.841Z" fill="#FFB9B9"/>
<path d="M409.729 261.355L372.342 255.946L373.585 248.948C372.995 230.716 376.002 215.793 381.689 203.337L414.648 205.304C418.876 208.684 421.864 213.37 423.146 218.628C424.427 223.886 423.929 229.42 421.73 234.365L410.221 256.93L409.729 261.355Z" fill="#2F2E41"/>
<path d="M344.926 458.816C343.2 459.603 341.755 453.227 340.3 454.656C336.229 458.654 329.996 459.525 324.562 457.779L326.464 457.758C326.136 457.653 325.833 457.482 325.573 457.256C325.313 457.03 325.102 456.754 324.952 456.444C324.802 456.135 324.717 455.797 324.701 455.454C324.685 455.11 324.739 454.766 324.86 454.444V454.444C325.005 454.058 325.241 453.714 325.549 453.439C325.856 453.165 326.226 452.97 326.626 452.87L330.955 451.788L337.752 439.84L345.16 438.903L345.347 439.209C346.779 441.516 347.702 444.102 348.055 446.793C348.408 449.485 348.183 452.221 347.394 454.819C346.778 456.792 345.939 458.354 344.926 458.816Z" fill="#2F2E41"/>
<path d="M426.586 458.816C424.86 459.603 423.415 453.227 421.96 454.656C417.889 458.654 411.656 459.525 406.223 457.779L408.124 457.758C407.796 457.653 407.493 457.482 407.233 457.256C406.974 457.03 406.762 456.754 406.612 456.444C406.462 456.135 406.377 455.797 406.361 455.454C406.345 455.11 406.399 454.766 406.52 454.444V454.444C406.665 454.058 406.901 453.714 407.209 453.439C407.516 453.165 407.886 452.97 408.286 452.87L412.615 451.788L419.412 439.84L426.82 438.903L427.007 439.209C428.439 441.516 429.363 444.102 429.716 446.793C430.069 449.485 429.843 452.221 429.054 454.819C428.438 456.792 427.599 458.354 426.586 458.816Z" fill="#2F2E41"/>
<path d="M411.871 237.508H411.518C404.866 231.747 399.085 225.289 403.754 217.204C399.794 207.16 395.38 196.73 395.647 190.277C395.927 185.507 394.391 180.807 391.346 177.121C387.139 172.21 386.203 170.016 378.519 171.873C378.492 169.901 378.866 167.944 379.618 166.12C380.371 164.297 381.487 162.646 382.898 161.266C384.309 159.887 385.986 158.81 387.827 158.098C389.668 157.387 391.634 157.057 393.606 157.129L398.407 157.303C402.079 157.437 413.816 158.937 416.336 161.359C417.613 162.629 418.58 164.176 419.161 165.88C419.741 167.585 419.92 169.4 419.683 171.185C419.212 175.189 420.476 178.726 423.853 181.691C430.319 188.373 432.986 195.308 429.32 202.661C426.553 210.445 426.685 216.852 433.823 219.933C436.141 228.825 421.064 237.508 411.871 237.508Z" fill="#2F2E41"/>
<path d="M340.753 280.282C342.661 278.518 341.288 273.934 337.688 270.043C334.087 266.152 329.621 264.427 327.713 266.191C325.805 267.955 327.177 272.539 330.778 276.43C334.379 280.322 338.845 282.046 340.753 280.282Z" fill="#1D3F5A"/>
<path d="M353.354 250.016C360.979 250.016 367.16 243.838 367.16 236.217C367.16 228.597 360.979 222.419 353.354 222.419C345.73 222.419 339.549 228.597 339.549 236.217C339.549 243.838 345.73 250.016 353.354 250.016Z" fill="#25CFA0"/>
<path d="M376.536 324.144C370.346 321.341 364.579 317.683 359.404 313.279C348.956 304.252 341.37 291.295 340.805 277.292C340.264 263.853 345.961 251.22 351.988 239.542C352.746 238.073 353.512 236.608 354.286 235.147C354.58 234.589 355.493 234.964 355.197 235.525C348.944 247.384 342.384 259.917 341.791 273.592C341.166 288.006 348.212 301.745 358.697 311.335C364.106 316.201 370.232 320.206 376.86 323.209" fill="#1D3F5A"/>
<path d="M348.084 235.841L347.443 235.989L349.522 244.984L350.163 244.836L348.084 235.841Z" fill="#3F3D56"/>
<path d="M357.573 309.269C360.152 308.947 361.708 304.421 361.049 299.162C360.391 293.903 357.766 289.901 355.187 290.223C352.608 290.546 351.052 295.071 351.71 300.331C352.369 305.59 354.994 309.592 357.573 309.269Z" fill="#1D3F5A"/>
<path d="M372.835 308.064L371.465 318.196C371.333 319.174 370.985 320.11 370.447 320.938C369.909 321.765 369.194 322.463 368.354 322.981C367.514 323.499 366.569 323.824 365.587 323.934C364.606 324.043 363.613 323.933 362.679 323.612V323.612C361.722 323.283 360.853 322.742 360.136 322.028C359.42 321.314 358.875 320.446 358.543 319.491C358.211 318.536 358.101 317.517 358.221 316.513C358.34 315.509 358.687 314.545 359.234 313.695L363.488 307.081L376.77 256.93L378.246 222.513L391.528 223.496L389.56 262.83L372.835 308.064Z" fill="#FFB9B9"/>
<path d="M393.251 229.887C386.649 227.049 379.547 227.188 372.098 229.396L377.017 210.466C377.017 208.315 377.872 206.251 379.394 204.73C380.917 203.208 382.981 202.354 385.134 202.354C387.287 202.354 389.351 203.208 390.873 204.73C392.396 206.251 393.251 208.315 393.251 210.466V229.887Z" fill="#2F2E41"/>
</g>
<defs>
<clipPath id="clip0_1_12">
<rect width="500" height="460" fill="white"/>
</clipPath>
</defs>
</svg>
